<svg version="1.1" id="topLogo" xmlns="http://www.w3.org/2000/svg" xmlns:xlink="http://www.w3.org/1999/xlink" x="0px" y="0px"
	 width="475px" height="120px" viewBox="0 0 475 120" enable-background="new 0 0 475 120" xml:space="preserve">
<g>

	<path fill="url(#SVGID_27_)" d="M30.877,54.907c0-0.98,0.181-1.867,0.543-2.662c0.362-0.793,0.858-1.471,1.488-2.031
		c0.631-0.56,1.377-0.999,2.241-1.313c0.863-0.315,1.798-0.472,2.801-0.472c1.004,0,1.938,0.157,2.801,0.472
		c0.864,0.315,1.611,0.753,2.241,1.313s1.126,1.237,1.488,2.031c0.362,0.794,0.543,1.681,0.543,2.662c0,0.583-0.094,1.167-0.28,1.75
		c-0.187,0.584-0.455,1.122-0.806,1.611c-0.35,0.491-0.776,0.922-1.278,1.296c-0.502,0.373-1.068,0.642-1.698,0.805v0.07
		c0.747,0.164,1.423,0.438,2.031,0.823c0.607,0.385,1.121,0.858,1.541,1.418c0.42,0.561,0.747,1.197,0.98,1.908
		c0.233,0.713,0.35,1.453,0.35,2.225c0,1.12-0.205,2.129-0.613,3.029c-0.409,0.897-0.969,1.662-1.681,2.293
		s-1.552,1.109-2.521,1.436c-0.969,0.326-2.002,0.489-3.1,0.489s-2.13-0.163-3.099-0.489s-1.81-0.805-2.521-1.436
		c-0.713-0.631-1.273-1.396-1.681-2.293c-0.408-0.9-0.613-1.909-0.613-3.029c0-0.771,0.117-1.512,0.351-2.225
		c0.233-0.711,0.56-1.348,0.98-1.908c0.42-0.56,0.934-1.033,1.541-1.418c0.607-0.385,1.284-0.659,2.031-0.823v-0.07
		c-0.63-0.163-1.197-0.432-1.698-0.805c-0.502-0.374-0.928-0.805-1.278-1.296c-0.35-0.49-0.618-1.027-0.805-1.611
		C30.97,56.074,30.877,55.49,30.877,54.907z M32.979,66.603c0,0.723,0.127,1.39,0.385,1.995c0.257,0.607,0.613,1.126,1.068,1.56
		c0.455,0.431,0.98,0.769,1.576,1.015c0.595,0.244,1.243,0.368,1.943,0.368c0.701,0,1.349-0.124,1.944-0.368
		c0.595-0.246,1.121-0.584,1.576-1.015c0.456-0.434,0.811-0.952,1.068-1.56c0.257-0.605,0.385-1.272,0.385-1.995
		s-0.128-1.389-0.385-1.996c-0.257-0.607-0.612-1.127-1.068-1.559c-0.455-0.433-0.981-0.771-1.576-1.016
		c-0.595-0.245-1.243-0.367-1.944-0.367c-0.7,0-1.348,0.122-1.943,0.367c-0.596,0.245-1.121,0.583-1.576,1.016
		c-0.455,0.432-0.811,0.951-1.068,1.559C33.106,65.214,32.979,65.88,32.979,66.603z M33.818,55.047c0,1.19,0.379,2.171,1.138,2.941
		c0.758,0.771,1.756,1.155,2.994,1.155s2.235-0.385,2.994-1.155c0.758-0.771,1.138-1.751,1.138-2.941
		c0-1.191-0.379-2.171-1.138-2.942c-0.759-0.77-1.757-1.155-2.994-1.155s-2.235,0.385-2.994,1.155
		C34.198,52.875,33.818,53.856,33.818,55.047z"/>

	<path fill="url(#SVGID_28_)" d="M54.829,59.178l0.07,0.07c0.467-0.256,1.01-0.443,1.628-0.56c0.618-0.117,1.185-0.176,1.699-0.176
		c1.073,0,2.071,0.187,2.993,0.56c0.922,0.375,1.716,0.906,2.382,1.593c0.665,0.689,1.184,1.513,1.558,2.469
		c0.373,0.957,0.56,2.009,0.56,3.152c0,1.213-0.21,2.3-0.63,3.256c-0.42,0.959-1.004,1.768-1.75,2.434
		c-0.748,0.665-1.628,1.18-2.644,1.541s-2.107,0.542-3.274,0.542c-1.168,0-2.259-0.181-3.274-0.542
		c-1.016-0.361-1.897-0.876-2.644-1.541c-0.747-0.666-1.331-1.475-1.75-2.434c-0.42-0.956-0.63-2.043-0.63-3.256
		c0-1.425,0.222-2.673,0.665-3.747c0.443-1.073,1.004-2.147,1.681-3.221l6.583-10.471h3.432L54.829,59.178z M57.42,61.034
		c-0.748,0-1.448,0.123-2.101,0.367c-0.654,0.245-1.22,0.597-1.698,1.052c-0.479,0.455-0.858,1.01-1.138,1.662
		c-0.28,0.654-0.42,1.378-0.42,2.172c0,0.817,0.14,1.547,0.42,2.188c0.28,0.643,0.66,1.189,1.138,1.646
		c0.478,0.456,1.044,0.805,1.698,1.051c0.653,0.244,1.354,0.368,2.101,0.368c0.747,0,1.447-0.124,2.101-0.368
		c0.654-0.246,1.22-0.595,1.698-1.051s0.858-1.003,1.138-1.646c0.28-0.642,0.42-1.371,0.42-2.188c0-0.794-0.14-1.518-0.42-2.172
		c-0.28-0.652-0.66-1.207-1.138-1.662s-1.044-0.807-1.698-1.052C58.867,61.157,58.167,61.034,57.42,61.034z"/>

	<path fill="url(#SVGID_29_)" d="M68.905,70.278l9.349-9.104c0.583-0.561,1.097-1.081,1.541-1.559s0.811-0.946,1.103-1.401
		c0.292-0.455,0.508-0.928,0.648-1.417c0.14-0.491,0.21-1.039,0.21-1.646c0-0.654-0.117-1.237-0.351-1.751
		c-0.233-0.514-0.555-0.951-0.963-1.313c-0.409-0.362-0.887-0.641-1.436-0.84c-0.549-0.199-1.138-0.297-1.768-0.297
		c-1.261,0-2.3,0.361-3.117,1.084c-0.818,0.724-1.343,1.682-1.576,2.872l-3.187-0.28c0.163-1.004,0.473-1.896,0.928-2.679
		c0.455-0.782,1.027-1.429,1.716-1.943c0.688-0.513,1.465-0.905,2.329-1.173s1.797-0.403,2.802-0.403
		c1.026,0,1.996,0.146,2.906,0.438c0.91,0.292,1.709,0.718,2.398,1.278c0.688,0.56,1.237,1.261,1.646,2.101
		c0.408,0.84,0.613,1.81,0.613,2.907c0,0.98-0.135,1.868-0.402,2.661c-0.269,0.793-0.631,1.522-1.086,2.188
		c-0.455,0.665-0.969,1.296-1.541,1.892c-0.572,0.595-1.173,1.185-1.804,1.768l-7.633,7.18v0.069h12.641v2.73H68.905V70.278z"/>

	<path fill="url(#SVGID_30_)" d="M98.949,63.311l-0.07-0.07c-0.467,0.257-1.01,0.444-1.628,0.56
		c-0.619,0.118-1.185,0.176-1.698,0.176c-1.074,0-2.073-0.186-2.995-0.561c-0.922-0.373-1.715-0.904-2.381-1.593
		c-0.665-0.688-1.185-1.506-1.559-2.451c-0.374-0.946-0.56-2.002-0.56-3.17c0-1.213,0.21-2.298,0.631-3.256
		c0.419-0.958,1.003-1.769,1.75-2.434c0.748-0.665,1.628-1.178,2.645-1.541c1.015-0.361,2.106-0.542,3.273-0.542
		c1.167,0,2.259,0.181,3.274,0.542c1.015,0.363,1.896,0.875,2.644,1.541c0.747,0.666,1.331,1.477,1.751,2.434
		c0.42,0.958,0.63,2.043,0.63,3.256c0,0.724-0.058,1.39-0.175,1.996c-0.117,0.608-0.28,1.191-0.49,1.751
		c-0.21,0.562-0.461,1.104-0.753,1.629c-0.292,0.525-0.602,1.057-0.928,1.594L95.728,73.64h-3.432L98.949,63.311z M96.357,61.454
		c0.747,0,1.447-0.123,2.101-0.367c0.654-0.245,1.22-0.595,1.698-1.05c0.478-0.455,0.858-1.003,1.138-1.646
		c0.28-0.642,0.42-1.371,0.42-2.189c0-0.793-0.14-1.517-0.42-2.17c-0.28-0.654-0.66-1.209-1.138-1.664
		c-0.479-0.455-1.044-0.805-1.698-1.051c-0.654-0.245-1.354-0.367-2.101-0.367c-0.747,0-1.448,0.122-2.101,0.367
		c-0.654,0.246-1.22,0.596-1.699,1.051s-0.858,1.01-1.138,1.664C91.14,54.685,91,55.408,91,56.202c0,0.818,0.14,1.547,0.419,2.189
		c0.28,0.643,0.66,1.191,1.138,1.646s1.045,0.805,1.699,1.05C94.91,61.331,95.61,61.454,96.357,61.454z"/>

	<path fill="url(#SVGID_31_)" d="M138.62,49.867h14.653v28.316c0,2.809-0.438,5.459-1.313,7.954s-2.248,4.677-4.117,6.543
		c-1.87,1.869-3.832,3.181-5.884,3.937c-2.853,1.06-6.279,1.587-10.277,1.587c-2.313,0-4.836-0.161-7.57-0.485
		c-2.735-0.323-5.021-0.967-6.857-1.927c-1.838-0.961-3.518-2.327-5.042-4.099c-1.524-1.771-2.567-3.597-3.129-5.476
		c-0.907-3.022-1.361-5.701-1.361-8.034V49.867h14.654v28.991c0,2.592,0.718,4.616,2.156,6.072c1.437,1.459,3.431,2.187,5.981,2.187
		c2.528,0,4.511-0.717,5.949-2.152c1.437-1.438,2.156-3.473,2.156-6.106V49.867z"/>
	<path fill="url(#SVGID_32_)" d="M162.264,97.396V49.867h24.477c4.539,0,8.008,0.389,10.407,1.167
		c2.399,0.778,4.333,2.221,5.803,4.328c1.47,2.107,2.204,4.674,2.204,7.7c0,2.636-0.562,4.91-1.686,6.823s-2.671,3.464-4.639,4.653
		c-1.254,0.757-2.973,1.383-5.158,1.879c1.749,0.585,3.024,1.169,3.823,1.753c0.541,0.39,1.323,1.224,2.349,2.5
		c1.026,1.275,1.712,2.259,2.057,2.953l7.112,13.771h-16.594l-7.85-14.524c-0.995-1.881-1.881-3.103-2.659-3.663
		c-1.059-0.736-2.259-1.104-3.599-1.104h-1.297v19.291H162.264z M177.015,69.125h6.192c0.67,0,1.967-0.217,3.891-0.649
		c0.973-0.193,1.767-0.689,2.383-1.49c0.616-0.799,0.923-1.718,0.923-2.757c0-1.534-0.486-2.711-1.458-3.533
		c-0.973-0.821-2.799-1.232-5.479-1.232h-6.452V69.125z"/>

	<path fill="url(#SVGID_33_)" d="M213.415,49.867h27.492c4.582,0,8.1,1.135,10.553,3.404c2.452,2.27,3.68,5.08,3.68,8.429
		c0,2.811-0.875,5.22-2.626,7.229c-1.168,1.341-2.874,2.4-5.122,3.178c3.414,0.822,5.927,2.232,7.537,4.231
		c1.61,1.998,2.415,4.511,2.415,7.537c0,2.463-0.572,4.679-1.718,6.646c-1.146,1.967-2.713,3.522-4.701,4.668
		c-1.231,0.713-3.091,1.231-5.576,1.556c-3.307,0.433-5.501,0.649-6.581,0.649h-25.353V49.867z M228.231,68.509h6.387
		c2.29,0,3.884-0.396,4.781-1.184c0.896-0.788,1.346-1.929,1.346-3.42c0-1.383-0.449-2.465-1.346-3.242
		c-0.897-0.778-2.459-1.167-4.685-1.167h-6.483V68.509z M228.231,87.183h7.489c2.528,0,4.311-0.448,5.35-1.346
		c1.037-0.897,1.555-2.102,1.555-3.615c0-1.404-0.514-2.533-1.539-3.389c-1.027-0.853-2.826-1.279-5.398-1.279h-7.457V87.183z"/>
	<path fill="url(#SVGID_35_)" d="M315.097,49.867h13.714l17.896,26.295V49.867h13.843v47.528h-13.843l-17.799-26.098v26.098h-13.811
		V49.867z"/>
	<path fill="url(#SVGID_36_)" d="M370.804,90.114c1.29,0,2.389,0.454,3.293,1.355c0.903,0.906,1.356,2.004,1.356,3.294
		c0,1.293-0.479,2.39-1.434,3.294c-0.957,0.903-2.028,1.355-3.216,1.355c-1.188,0-2.26-0.452-3.216-1.355
		c-0.957-0.904-1.434-2.001-1.434-3.294c0-1.29,0.451-2.388,1.356-3.294C368.414,90.568,369.512,90.114,370.804,90.114z"/>
	<path fill="url(#SVGID_37_)" d="M385.123,40.37h6.044v58.578h-6.044V40.37z"/>
	<path fill="url(#SVGID_38_)" d="M400.17,48.506c0-1.188,0.426-2.22,1.278-3.1c0.853-0.877,1.899-1.317,3.138-1.317
		c1.24,0,2.286,0.44,3.139,1.317c0.853,0.879,1.279,1.912,1.279,3.1c0,1.292-0.414,2.351-1.24,3.177
		c-0.827,0.827-1.887,1.24-3.178,1.24s-2.351-0.413-3.176-1.24C400.583,50.857,400.17,49.798,400.17,48.506z M401.564,62.687h6.044
		v36.262h-6.044V62.687z"/>
	<path fill="url(#SVGID_39_)" d="M421.252,67.801h-7.902v-5.114h7.902V54.55c0-2.221,0.206-4.249,0.62-6.083
		c0.413-1.833,1.124-3.421,2.131-4.765c1.008-1.342,2.337-2.389,3.99-3.138c1.653-0.748,3.693-1.124,6.122-1.124
		c0.774,0,1.601,0.078,2.479,0.232c0.878,0.155,1.601,0.387,2.171,0.697l-0.853,5.424c-1.447-0.515-2.816-0.774-4.107-0.774
		c-1.55,0-2.764,0.271-3.642,0.813c-0.88,0.542-1.537,1.292-1.976,2.247c-0.44,0.956-0.698,2.105-0.775,3.448
		c-0.077,1.343-0.116,2.789-0.116,4.339v6.819h8.834v5.114h-8.834v31.147h-6.044V67.801z"/>
	<path fill="url(#SVGID_40_)" d="M472.964,92.361c-2.169,2.791-4.546,4.74-7.128,5.852c-2.583,1.11-5.579,1.665-8.988,1.665
		c-2.842,0-5.398-0.503-7.671-1.512c-2.274-1.007-4.197-2.362-5.772-4.067c-1.576-1.704-2.789-3.718-3.642-6.043
		c-0.853-2.324-1.279-4.805-1.279-7.438c0-2.789,0.466-5.359,1.395-7.71c0.931-2.35,2.221-4.365,3.875-6.045
		c1.652-1.677,3.615-2.981,5.889-3.912c2.272-0.93,4.752-1.395,7.438-1.395c2.531,0,4.854,0.427,6.974,1.278
		c2.117,0.854,3.938,2.092,5.463,3.72c1.522,1.627,2.698,3.615,3.525,5.965c0.826,2.353,1.24,5.026,1.24,8.021v1.936h-29.29
		c0.103,1.551,0.478,3.035,1.123,4.456s1.485,2.661,2.52,3.721c1.032,1.059,2.247,1.897,3.642,2.518s2.917,0.929,4.571,0.929
		c2.635,0,4.854-0.464,6.663-1.396c1.808-0.929,3.436-2.297,4.882-4.104L472.964,92.361z M467.772,77.562
		c-0.104-3.098-1.11-5.578-3.021-7.438c-1.911-1.858-4.546-2.789-7.903-2.789c-3.358,0-6.07,0.931-8.136,2.789
		c-2.066,1.86-3.307,4.341-3.72,7.438H467.772z"/>
</g>
</svg>
