<?xml version="1.0" encoding="utf-8"?>
<!-- Generator: Adobe Illustrator 16.0.0, SVG Export Plug-In . SVG Version: 6.00 Build 0)  -->
<!DOCTYPE svg PUBLIC "-//W3C//DTD SVG 1.1//EN" "http://www.w3.org/Graphics/SVG/1.1/DTD/svg11.dtd">
<svg version="1.1" id="Layer_1" xmlns="http://www.w3.org/2000/svg" xmlns:xlink="http://www.w3.org/1999/xlink" x="0px" y="0px"
	 width="321px" height="45.5px" viewBox="0 0 321 45.5" enable-background="new 0 0 321 45.5" xml:space="preserve">
<g>
	<path d="M23.777,9.476c-1.3-0.728-3.796-1.768-7.072-1.768c-4.732,0-6.708,2.756-6.708,5.304c0,3.38,2.236,5.044,7.28,7.229
		c6.396,2.808,9.465,6.292,9.465,11.751c0,6.656-4.94,11.648-13.885,11.648c-3.744,0-7.696-1.092-9.62-2.391l1.352-5.045
		c2.132,1.301,5.356,2.34,8.633,2.34c4.732,0,7.384-2.443,7.384-6.031c0-3.381-2.028-5.461-6.76-7.438
		c-5.929-2.392-9.933-5.98-9.933-11.388c0-6.292,5.044-11.024,12.948-11.024c3.796,0,6.656,0.937,8.373,1.82L23.777,9.476z"/>
	<path d="M56.849,8.436H46.084v34.633h-6.032V8.436H29.339V3.288h27.509V8.436z"/>
	<path d="M92.936,22.789c0,13.833-7.436,20.852-17.109,20.852c-10.14,0-16.641-8.215-16.641-20.228
		c0-12.532,6.969-20.749,17.161-20.749C86.904,2.664,92.936,11.348,92.936,22.789z M65.531,23.256c0,8.06,3.64,15.445,10.504,15.445
		c6.969,0,10.557-7.229,10.557-15.705c0-7.592-3.328-15.393-10.452-15.393C68.807,7.604,65.531,15.457,65.531,23.256z"/>
	<path d="M116.179,24.141c2.964,1.092,4.628,3.9,5.564,8.112c1.196,5.2,2.184,9.308,2.964,10.816h-6.24
		c-0.572-1.144-1.508-4.628-2.496-9.517c-1.092-5.305-3.016-7.332-7.229-7.332h-3.64v16.849h-5.98V3.808
		c2.548-0.468,6.084-0.832,9.672-0.832c5.2,0,8.84,0.936,11.336,3.172c2.08,1.82,3.172,4.576,3.172,7.8
		c0,5.096-3.12,8.581-7.124,10.088V24.141z M109.158,21.697c4.992,0,8.112-2.86,8.112-7.125c0-5.148-3.64-6.917-7.956-6.917
		c-2.028,0-3.484,0.156-4.212,0.364v13.677H109.158z"/>
	<path d="M151.746,43.069h-21.685V3.288h20.801v5.044h-14.769v11.493h13.937v4.992h-13.937v13.209h15.652V43.069z"/>
</g>
</svg>
