<?xml version="1.0" encoding="utf-8"?>
<!-- Generator: Adobe Illustrator 16.0.0, SVG Export Plug-In . SVG Version: 6.00 Build 0)  -->
<!DOCTYPE svg PUBLIC "-//W3C//DTD SVG 1.1//EN" "http://www.w3.org/Graphics/SVG/1.1/DTD/svg11.dtd">
<svg version="1.1" id="Layer_1" xmlns="http://www.w3.org/2000/svg" xmlns:xlink="http://www.w3.org/1999/xlink" x="0px" y="0px"
	 width="321px" height="45.5px" viewBox="0 0 321 45.5" enable-background="new 0 0 321 45.5" xml:space="preserve">
<g>
	<path d="M5.16,42.862V3.081h20.697v5.044H11.192v12.272h13.625v4.992H11.192v17.473H5.16z"/>
	<path d="M54.301,42.862H32.616V3.081h20.801v5.044H38.648v11.493h13.937v4.992H38.648v13.208h15.652V42.862z"/>
	<path d="M89.297,42.862h-6.345l-3.588-11.701H67.196l-3.432,11.701h-6.188L69.744,3.081h7.384L89.297,42.862z M78.376,26.534
		l-3.12-10.4c-0.728-2.6-1.404-5.408-1.976-7.853h-0.104c-0.572,2.444-1.196,5.356-1.872,7.801l-3.172,10.452H78.376z"/>
	<path d="M118.468,8.229h-10.764v34.633h-6.032V8.229H90.959V3.081h27.509V8.229z"/>
	<path d="M150.916,26.638c0,11.804-5.877,16.796-14.353,16.796c-8.165,0-13.676-4.784-13.676-16.641V3.081h6.032v24.077
		c0,7.956,3.276,11.336,7.852,11.336c4.992,0,8.112-3.432,8.112-11.336V3.081h6.033V26.638z"/>
	<path d="M176.188,23.934c2.964,1.092,4.628,3.9,5.564,8.112c1.195,5.2,2.184,9.308,2.964,10.816h-6.24
		c-0.572-1.144-1.508-4.628-2.496-9.516c-1.092-5.305-3.017-7.333-7.229-7.333h-3.64v16.849h-5.98V3.601
		c2.548-0.468,6.084-0.832,9.672-0.832c5.201,0,8.841,0.936,11.337,3.172c2.08,1.82,3.172,4.576,3.172,7.8
		c0,5.096-3.12,8.581-7.124,10.088V23.934z M169.167,21.49c4.992,0,8.112-2.86,8.112-7.125c0-5.148-3.64-6.917-7.956-6.917
		c-2.028,0-3.484,0.156-4.212,0.364V21.49H169.167z"/>
	<path d="M211.754,42.862h-21.685V3.081h20.801v5.044h-14.769v11.493h13.937v4.992h-13.937v13.208h15.652V42.862z"/>
</g>
</svg>
