<?xml version="1.0" encoding="utf-8"?>
<!-- Generator: Adobe Illustrator 16.0.0, SVG Export Plug-In . SVG Version: 6.00 Build 0)  -->
<!DOCTYPE svg PUBLIC "-//W3C//DTD SVG 1.1//EN" "http://www.w3.org/Graphics/SVG/1.1/DTD/svg11.dtd">
<svg version="1.1" id="Layer_1" xmlns="http://www.w3.org/2000/svg" xmlns:xlink="http://www.w3.org/1999/xlink" x="0px" y="0px"
	 width="321px" height="45.5px" viewBox="0 0 321 45.5" enable-background="new 0 0 321 45.5" xml:space="preserve">
<g>
	<path d="M28.821,8.229H18.057v34.634h-6.032V8.229H1.312V3.08h27.509V8.229z"/>
	<path d="M61.581,42.862h-6.032V24.766H39.324v18.097h-6.032V3.029h6.032v16.432h16.225V3.029h6.032V42.862z"/>
	<path d="M69.847,3.08h6.032v39.782h-6.032V3.08z"/>
	<path d="M112.644,42.862h-6.084L96.107,24.246c-2.392-4.316-4.784-8.996-6.604-13.469l-0.208,0.052
		c0.312,5.044,0.416,10.192,0.416,17.161v14.872h-5.564V3.08h6.552l10.4,18.41c2.496,4.367,4.732,8.943,6.448,13.156l0.156-0.053
		c-0.468-5.408-0.624-10.504-0.624-16.848V3.08h5.564V42.862z"/>
	<path d="M148.315,42.862h-7.02L130.271,24.09l-3.328,4.16v14.612h-5.98V3.08h5.98v18.67h0.156c0.936-1.561,1.924-3.017,2.86-4.42
		l10.245-14.25h7.333l-13.053,16.953L148.315,42.862z"/>
	<path d="M163.913,3.549c2.392-0.416,5.564-0.779,9.673-0.779c4.888,0,8.58,1.039,10.972,3.172c2.236,1.924,3.589,4.939,3.589,8.58
		c0,9.672-7.697,13-14.873,13c-1.248,0-2.393-0.052-3.38-0.26v15.601h-5.98V3.549z M169.894,22.426
		c0.884,0.26,1.976,0.312,3.38,0.312c5.512,0,8.84-2.861,8.84-7.957c0-4.836-3.328-7.28-8.164-7.28
		c-1.872,0-3.275,0.208-4.056,0.364V22.426z"/>
	<path d="M194.333,3.08h6.032v39.782h-6.032V3.08z"/>
	<path d="M230.317,42.862h-21.685V3.08h20.801v5.045h-14.769v11.492h13.937v4.992h-13.937v13.209h15.652V42.862z"/>
	<path d="M262.193,41.77c-1.664,0.832-5.045,1.664-9.36,1.664c-11.077,0-18.513-7.332-18.513-20.02
		c0-13.521,8.528-20.905,19.553-20.905c4.576,0,7.384,0.987,8.477,1.56l-1.301,4.941c-1.664-0.781-4.004-1.457-6.968-1.457
		c-7.696,0-13.417,5.201-13.417,15.549c0,9.776,5.097,15.236,13.312,15.236c2.704,0,5.461-0.572,7.177-1.404L262.193,41.77z"/>
	<path d="M289.855,42.862h-21.685V3.08h20.801v5.045h-14.769v11.492h13.937v4.992h-13.937v13.209h15.652V42.862z"/>
	<path d="M314.607,9.27c-1.301-0.729-3.797-1.769-7.072-1.769c-4.732,0-6.709,2.757-6.709,5.304c0,3.381,2.236,5.045,7.28,7.229
		c6.396,2.809,9.465,6.293,9.465,11.752c0,6.656-4.94,11.648-13.885,11.648c-3.744,0-7.696-1.092-9.62-2.391l1.352-5.045
		c2.133,1.301,5.356,2.34,8.633,2.34c4.732,0,7.384-2.443,7.384-6.031c0-3.381-2.028-5.461-6.76-7.438
		c-5.929-2.392-9.933-5.98-9.933-11.389c0-6.291,5.044-11.023,12.948-11.023c3.796,0,6.656,0.936,8.372,1.82L314.607,9.27z"/>
</g>
</svg>
