<?xml version="1.0" encoding="utf-8"?>
<!-- Generator: Adobe Illustrator 16.0.0, SVG Export Plug-In . SVG Version: 6.00 Build 0)  -->
<!DOCTYPE svg PUBLIC "-//W3C//DTD SVG 1.1//EN" "http://www.w3.org/Graphics/SVG/1.1/DTD/svg11.dtd">
<svg version="1.1" id="topLogo" xmlns="http://www.w3.org/2000/svg" xmlns:xlink="http://www.w3.org/1999/xlink" x="0px" y="0px"
	 width="475px" height="120px" viewBox="0 0 475 120" enable-background="new 0 0 475 120" xml:space="preserve">
<rect display="none" fill="#414042" width="475" height="120"/>
<g >
	<path display="inline" fill="lime" d="M5.959,5.946C7.552,5.8,8.641,5.662,9.227,5.533c0.327-0.069,0.622-0.104,0.885-0.104
		c0.262,0,0.517,0.088,0.762,0.265c0.246,0.177,0.368,0.33,0.368,0.458c0,0.181-0.177,0.254-0.53,0.22
		C9.98,6.303,9.215,6.269,8.419,6.269S6.755,6.325,5.816,6.436C5.713,6.807,5.528,7.328,5.262,8C5.83,7.947,6.385,7.87,6.928,7.767
		c0.542-0.103,0.85-0.174,0.923-0.213C7.924,7.515,8,7.496,8.077,7.496c0.155,0,0.398,0.129,0.729,0.388
		c0.332,0.258,0.498,0.443,0.498,0.555s-0.1,0.211-0.297,0.297C8.938,8.77,8.848,8.832,8.735,8.922C8.624,9.013,8.378,9.23,8,9.575
		l-1.266,1.149c0.62,0.491,0.93,0.973,0.93,1.446c0,0.155-0.034,0.286-0.103,0.394s-0.166,0.162-0.291,0.162
		s-0.243-0.082-0.355-0.246c-0.723-0.99-1.494-1.83-2.312-2.519c-0.06-0.051-0.09-0.101-0.09-0.148s0.052-0.071,0.155-0.071
		s0.372,0.09,0.807,0.271c0.435,0.181,0.764,0.348,0.988,0.503c0.405-0.482,0.727-0.917,0.968-1.304
		c0.241-0.388,0.362-0.65,0.362-0.788c0-0.138-0.103-0.205-0.31-0.205c-0.689,0-1.24,0.041-1.653,0.123
		c-0.414,0.082-0.708,0.192-0.885,0.33c-0.177,0.138-0.31,0.207-0.4,0.207s-0.19-0.066-0.297-0.195
		C4.14,8.555,4.086,8.415,4.086,8.264c0-0.151,0.071-0.25,0.213-0.297c0.143-0.047,0.278-0.17,0.407-0.368
		C4.835,7.401,4.99,7.031,5.171,6.488C4.56,6.558,3.92,6.654,3.254,6.779C2.586,6.904,2.167,6.966,1.995,6.966
		s-0.381-0.067-0.626-0.2C1.123,6.633,1,6.529,1,6.456c0-0.073,0.099-0.114,0.297-0.123c1.18-0.034,2.514-0.15,4.003-0.348
		C5.43,5.494,5.537,4.999,5.623,4.5c-0.56,0.043-0.955,0.065-1.188,0.065c-0.232,0-0.454-0.05-0.665-0.149S3.454,4.23,3.454,4.157
		c0-0.073,0.073-0.11,0.219-0.11L3.996,4.06c0.387,0,0.96-0.073,1.717-0.22c0.104-0.835,0.155-1.373,0.155-1.614
		c0-0.241-0.041-0.443-0.123-0.607c-0.081-0.163-0.122-0.29-0.122-0.38c0-0.091,0.062-0.136,0.188-0.136
		c0.125,0,0.37,0.086,0.736,0.258c0.366,0.172,0.549,0.336,0.549,0.491c0,0.069-0.026,0.163-0.078,0.284
		C6.803,2.593,6.622,3.131,6.476,3.75c0.112-0.009,0.258-0.047,0.439-0.116C7.096,3.565,7.324,3.501,7.6,3.44
		c0.275-0.06,0.529-0.088,0.762-0.083c0.232,0.004,0.433,0.047,0.6,0.128C9.129,3.567,9.214,3.66,9.214,3.764
		c0,0.103-0.168,0.204-0.504,0.303S7.577,4.292,6.321,4.448C6.208,5.008,6.088,5.507,5.959,5.946z"/>
	<path display="inline" fill="lime" d="M20.126,9.897c1.851-0.172,2.871-0.258,3.061-0.258c0.482,0,0.854,0.106,1.117,0.316
		c0.262,0.211,0.394,0.394,0.394,0.549c0,0.155-0.12,0.233-0.361,0.233c-0.061,0-0.129-0.009-0.207-0.026
		c-1.05-0.198-2.167-0.297-3.352-0.297s-2.367,0.073-3.551,0.219c-1.184,0.147-1.892,0.248-2.125,0.304
		c-0.232,0.056-0.419,0.084-0.562,0.084s-0.33-0.082-0.562-0.246s-0.348-0.278-0.348-0.343c0-0.064,0.064-0.097,0.193-0.097
		l0.361,0.013c0.585,0,1.718-0.073,3.397-0.219c0-1.757-0.015-3.089-0.045-3.997c-0.03-0.909-0.08-1.547-0.148-1.918
		c-0.069-0.37-0.179-0.624-0.33-0.762c-0.15-0.138-0.226-0.26-0.226-0.368c0-0.107,0.08-0.162,0.239-0.162
		c0.159,0,0.404,0.058,0.736,0.174c0.331,0.116,0.497,0.269,0.497,0.459c0,0.051-0.013,0.131-0.039,0.238
		c-0.026,0.108-0.043,0.3-0.052,0.575l-0.104,5.708l1.46-0.129C19.7,7.014,19.764,5.19,19.764,4.48s-0.013-1.197-0.039-1.459
		C19.7,2.758,19.631,2.558,19.519,2.42c-0.112-0.138-0.168-0.263-0.168-0.375c0-0.112,0.08-0.168,0.239-0.168
		c0.159,0,0.402,0.075,0.73,0.226c0.327,0.151,0.491,0.308,0.491,0.471c0,0.069-0.02,0.157-0.059,0.265
		c-0.038,0.107-0.071,0.236-0.097,0.387c-0.025,0.151-0.064,0.502-0.116,1.052L20.126,9.897z M16.769,7.444
		c0,0.129-0.037,0.289-0.11,0.478c-0.074,0.19-0.164,0.285-0.271,0.285c-0.108,0-0.22-0.082-0.336-0.246
		c-0.117-0.164-0.291-0.505-0.523-1.027c-0.232-0.521-0.348-0.824-0.348-0.91c0-0.052,0.034-0.078,0.103-0.078
		c0.069,0,0.254,0.09,0.556,0.271c0.301,0.181,0.532,0.379,0.691,0.594C16.69,7.026,16.769,7.237,16.769,7.444z M23.342,5.662
		c0,0.078-0.08,0.166-0.239,0.265c-0.159,0.1-0.269,0.188-0.33,0.265c-0.663,0.706-1.177,1.177-1.542,1.414
		c-0.366,0.237-0.586,0.355-0.659,0.355c-0.073,0-0.11-0.021-0.11-0.064s0.018-0.086,0.052-0.129
		c0.447-0.508,0.783-0.925,1.007-1.252c0.223-0.327,0.366-0.573,0.426-0.736c0.06-0.164,0.09-0.332,0.09-0.504
		c0-0.275,0.079-0.413,0.238-0.413c0.159,0,0.377,0.103,0.652,0.31C23.204,5.378,23.342,5.541,23.342,5.662z"/>
	<path display="inline" fill="lime" d="M28.055,6.049c0,0.129-0.026,0.248-0.077,0.355c-0.052,0.108-0.125,0.162-0.22,0.162
		c-0.155,0-0.379-0.192-0.671-0.575c-0.293-0.383-0.439-0.607-0.439-0.672c0-0.064,0.039-0.097,0.116-0.097
		c0.215,0,0.484,0.077,0.807,0.232C27.894,5.61,28.055,5.808,28.055,6.049z M28.792,7.186c0,0.069-0.018,0.164-0.052,0.284
		c-0.525,1.688-0.843,2.833-0.955,3.435c-0.078,0.405-0.168,0.607-0.271,0.607c-0.104,0-0.251-0.174-0.445-0.523
		c-0.194-0.349-0.291-0.577-0.291-0.684c0-0.108,0.051-0.183,0.155-0.227c0.146-0.051,0.305-0.213,0.478-0.484
		c0.173-0.271,0.525-0.992,1.059-2.164c0.104-0.232,0.194-0.348,0.271-0.348C28.774,7.083,28.792,7.117,28.792,7.186z M27.694,2.782
		c0.284,0,0.563,0.088,0.839,0.265c0.275,0.176,0.414,0.389,0.414,0.639c0,0.155-0.03,0.28-0.09,0.375
		c-0.061,0.095-0.138,0.142-0.233,0.142c-0.172,0-0.391-0.2-0.658-0.6c-0.267-0.4-0.4-0.637-0.4-0.71
		C27.564,2.819,27.607,2.782,27.694,2.782z M30.78,5.417c0.396-0.104,0.681-0.194,0.853-0.271c0.171-0.077,0.325-0.116,0.458-0.116
		c0.133,0,0.325,0.062,0.575,0.188c0.25,0.125,0.375,0.23,0.375,0.316s-0.043,0.172-0.129,0.258s-0.155,0.192-0.207,0.316
		c-0.052,0.125-0.153,0.392-0.303,0.801c-0.151,0.409-0.252,0.666-0.304,0.769c-0.052,0.104-0.105,0.155-0.161,0.155
		c-0.057,0-0.114-0.015-0.175-0.045c-0.061-0.03-0.144-0.045-0.251-0.045c-0.108,0-0.312,0.031-0.613,0.09
		c0.129,0.112,0.208,0.231,0.238,0.355c0.031,0.125,0.037,0.33,0.02,0.613c0.758-0.207,1.19-0.31,1.298-0.31s0.188,0.02,0.239,0.058
		c0.052,0.039,0.077,0.08,0.077,0.123c0,0.12-0.176,0.215-0.529,0.284c-0.354,0.069-0.724,0.151-1.111,0.246
		c-0.018,0.379-0.026,0.781-0.026,1.208c0,0.427-0.033,0.803-0.097,1.13c-0.065,0.327-0.153,0.49-0.265,0.49
		c-0.078,0-0.153-0.095-0.226-0.284c-0.074-0.19-0.11-0.364-0.11-0.523c0-0.159,0.017-0.295,0.051-0.407
		c0.086-0.275,0.146-0.775,0.181-1.498C30.2,9.43,29.786,9.571,29.399,9.744c-0.147,0.06-0.273,0.09-0.381,0.09
		c-0.107,0-0.224-0.054-0.349-0.162c-0.125-0.107-0.187-0.187-0.187-0.239c0-0.052,0.129-0.094,0.387-0.129
		c0.379-0.052,0.973-0.177,1.782-0.375c0-0.465-0.021-0.805-0.064-1.02l-0.542,0.128c-0.045,0.087-0.096,0.13-0.156,0.13
		c-0.095,0-0.164-0.107-0.207-0.323c-0.146-0.706-0.252-1.173-0.317-1.401c-0.064-0.228-0.138-0.4-0.219-0.517
		c-0.082-0.116-0.123-0.202-0.123-0.258s0.037-0.084,0.11-0.084c0.073,0,0.175,0.021,0.304,0.064
		c0.215-0.008,0.538-0.061,0.969-0.155l0.232-1.188c-0.232,0.035-0.43,0.052-0.594,0.052s-0.291-0.03-0.381-0.09
		s-0.136-0.112-0.136-0.155c0-0.042,0.065-0.077,0.193-0.103c0.319-0.061,0.659-0.142,1.021-0.245
		c0.052-0.354,0.078-0.73,0.078-1.13c0-0.4-0.026-0.663-0.078-0.788c-0.052-0.125-0.078-0.22-0.078-0.284s0.045-0.097,0.136-0.097
		c0.091,0,0.276,0.054,0.555,0.162c0.28,0.108,0.42,0.227,0.42,0.355c0,0.061-0.026,0.134-0.078,0.22
		c-0.086,0.172-0.236,0.637-0.452,1.395c0.431-0.155,0.717-0.232,0.859-0.232s0.269,0.019,0.381,0.058
		c0.111,0.039,0.167,0.099,0.167,0.181s-0.146,0.183-0.439,0.303c-0.293,0.121-0.667,0.228-1.124,0.323L30.78,5.417z M30.057,7.715
		c0.689-0.112,1.132-0.194,1.331-0.245c0.198-0.052,0.32-0.116,0.368-0.194c0.047-0.077,0.104-0.292,0.168-0.646
		s0.097-0.637,0.097-0.852c0-0.19-0.086-0.285-0.259-0.285c-0.112,0-0.398,0.067-0.858,0.2c-0.461,0.134-0.842,0.213-1.143,0.239
		c0.06,0.181,0.116,0.443,0.167,0.788c0.681-0.267,1.124-0.4,1.331-0.4c0.069,0,0.129,0.018,0.181,0.052
		c0.052,0.035,0.078,0.069,0.078,0.104c0,0.103-0.157,0.198-0.472,0.284C30.73,6.845,30.5,6.889,30.354,6.889
		s-0.279-0.009-0.4-0.026C30.005,7.208,30.04,7.491,30.057,7.715z M34.021,3.854c0.267-0.026,0.551-0.097,0.852-0.213
		c0.301-0.116,0.51-0.219,0.626-0.31s0.246-0.136,0.387-0.136c0.143,0,0.357,0.074,0.646,0.22c0.289,0.146,0.433,0.263,0.433,0.349
		s-0.043,0.193-0.129,0.322c-0.138,0.207-0.207,0.605-0.207,1.195c0,0.589,0.026,1.487,0.078,2.692l0.116,2.776
		c0,0.491-0.092,0.913-0.277,1.266c-0.186,0.353-0.321,0.53-0.407,0.53s-0.172-0.086-0.259-0.259
		c-0.258-0.499-0.603-0.951-1.033-1.355c-0.061-0.052-0.09-0.1-0.09-0.143s0.023-0.064,0.071-0.064c0.048,0,0.092,0.009,0.136,0.025
		c0.439,0.155,0.721,0.233,0.846,0.233s0.202-0.082,0.232-0.245c0.03-0.164,0.045-0.599,0.045-1.305s-0.017-1.73-0.051-3.073
		c-0.035-1.343-0.08-2.103-0.136-2.28c-0.056-0.176-0.148-0.265-0.278-0.265c-0.034,0-0.073,0.009-0.116,0.026
		c-0.645,0.181-1.071,0.271-1.278,0.271c0.061,0.439,0.078,1.016,0.052,1.731c0.517-0.198,0.828-0.297,0.936-0.297
		c0.108,0,0.208,0.02,0.304,0.058c0.095,0.039,0.142,0.088,0.142,0.149c0,0.103-0.153,0.191-0.458,0.264
		c-0.306,0.074-0.517,0.11-0.633,0.11c-0.116,0-0.213-0.004-0.291-0.013c-0.017,0.568-0.056,1.102-0.117,1.601
		c0.526-0.198,0.905-0.297,1.137-0.297c0.112,0,0.205,0.022,0.277,0.065c0.073,0.043,0.11,0.094,0.11,0.155
		c0,0.06-0.023,0.116-0.071,0.168c-0.047,0.051-0.2,0.104-0.458,0.155c-0.259,0.051-0.463,0.077-0.614,0.077
		c-0.15,0-0.286-0.034-0.407-0.103C34,8.848,33.754,9.633,33.401,10.292c-0.353,0.658-0.723,1.162-1.11,1.511
		c-0.387,0.349-0.633,0.523-0.736,0.523c-0.035,0-0.051-0.021-0.051-0.065c0-0.043,0.034-0.107,0.103-0.194
		c0.74-0.843,1.272-1.743,1.595-2.699c0.323-0.956,0.484-2.139,0.484-3.552c0-0.886-0.086-1.446-0.258-1.678
		c-0.078-0.104-0.117-0.196-0.117-0.278s0.067-0.123,0.2-0.123C33.644,3.737,33.815,3.776,34.021,3.854z"/>
	<path display="inline" fill="lime" d="M39.885,5.339c0.207,0,0.482,0.082,0.826,0.246c0.345,0.163,0.516,0.413,0.516,0.749
		c0,0.259-0.097,0.388-0.29,0.388c-0.194,0-0.448-0.185-0.762-0.555c-0.315-0.37-0.471-0.601-0.471-0.691
		C39.704,5.386,39.764,5.339,39.885,5.339z M42.39,7.083c0,0.051-0.018,0.125-0.052,0.22c-0.732,1.885-1.158,3.172-1.278,3.861
		c-0.061,0.37-0.159,0.556-0.297,0.556c-0.138,0-0.297-0.208-0.478-0.626c-0.181-0.418-0.271-0.695-0.271-0.833
		c0-0.078,0.035-0.121,0.104-0.129c0.258-0.009,0.491-0.211,0.698-0.607c0.275-0.534,0.563-1.07,0.865-1.608
		c0.301-0.538,0.474-0.831,0.517-0.878c0.042-0.047,0.085-0.071,0.129-0.071C42.368,6.966,42.39,7.004,42.39,7.083z M41.034,2.988
		c0.413,0,0.751,0.09,1.014,0.271c0.263,0.181,0.394,0.431,0.394,0.749c0,0.241-0.099,0.362-0.297,0.362
		c-0.198,0-0.476-0.192-0.833-0.575c-0.357-0.383-0.536-0.613-0.536-0.691C40.775,3.027,40.861,2.988,41.034,2.988z M44.365,8.451
		c0,0.043-0.008,0.082-0.025,0.116c-0.069,0.198-0.138,0.457-0.207,0.775c-0.121,0.603-0.306,1.083-0.556,1.44
		c-0.25,0.357-0.529,0.607-0.839,0.749c-0.31,0.142-0.521,0.213-0.632,0.213c-0.112,0-0.168-0.024-0.168-0.071
		c0-0.048,0.043-0.097,0.129-0.148c0.508-0.344,0.897-0.771,1.169-1.279c0.271-0.508,0.407-1.024,0.407-1.549
		c0-0.181-0.013-0.325-0.039-0.433s-0.039-0.192-0.039-0.252c0-0.06,0.045-0.09,0.136-0.09c0.091,0,0.224,0.052,0.4,0.155
		C44.277,8.18,44.365,8.305,44.365,8.451z M45.308,4.486c-0.585,0.095-0.996,0.142-1.233,0.142c-0.236,0-0.428-0.028-0.574-0.083
		c-0.146-0.056-0.22-0.11-0.22-0.162c0-0.051,0.082-0.081,0.246-0.09c0.929-0.085,2.251-0.37,3.964-0.852
		c0.344-0.095,0.611-0.142,0.801-0.142c0.189,0,0.366,0.033,0.529,0.097c0.164,0.065,0.246,0.143,0.246,0.233
		s-0.14,0.181-0.42,0.271c-0.28,0.09-1.203,0.261-2.77,0.51c0.207,0.146,0.31,0.284,0.31,0.413c0,0.069-0.03,0.125-0.09,0.168
		c-0.517,0.344-1.038,0.831-1.562,1.459c1.214-0.258,2.113-0.439,2.699-0.543c-0.284-0.438-0.426-0.684-0.426-0.735
		c0-0.052,0.039-0.078,0.116-0.078c0.078,0,0.263,0.062,0.556,0.188c0.292,0.125,0.508,0.258,0.646,0.4S48.33,6.006,48.33,6.23
		c0,0.387-0.082,0.581-0.246,0.581c-0.137,0-0.361-0.219-0.671-0.659c-0.844,0.181-1.562,0.377-2.156,0.588
		c-0.594,0.211-1.02,0.411-1.279,0.6c-0.103,0.078-0.193,0.117-0.271,0.117c-0.077,0-0.142-0.073-0.194-0.22
		c-0.052-0.147-0.077-0.258-0.077-0.335c0-0.078,0.028-0.153,0.084-0.226c0.056-0.073,0.126-0.125,0.213-0.155
		c0.086-0.03,0.191-0.086,0.316-0.168s0.224-0.157,0.298-0.226c0.073-0.069,0.187-0.208,0.342-0.419
		c0.155-0.211,0.275-0.388,0.362-0.529c0.086-0.142,0.15-0.269,0.194-0.381C45.287,4.685,45.308,4.582,45.308,4.486z M45.993,8.193
		c0,0.035-0.017,0.086-0.051,0.155c-0.061,0.129-0.09,0.75-0.09,1.86c0,0.388-0.039,0.697-0.116,0.93
		c-0.078,0.232-0.158,0.348-0.239,0.348c-0.082,0-0.155-0.105-0.22-0.316c-0.064-0.21-0.084-0.385-0.058-0.523
		c0.078-0.379,0.117-0.833,0.117-1.362c0-0.529-0.078-0.962-0.233-1.298c-0.017-0.034-0.026-0.069-0.026-0.103
		c0-0.095,0.045-0.143,0.136-0.143c0.091,0,0.243,0.047,0.458,0.143C45.885,7.978,45.993,8.082,45.993,8.193z M46.91,2.446
		c0,0.414-0.107,0.62-0.323,0.62c-0.216,0-0.472-0.189-0.769-0.569c-0.297-0.378-0.446-0.611-0.446-0.697
		c0-0.085,0.086-0.129,0.259-0.129c0.336,0,0.633,0.082,0.891,0.245C46.78,2.081,46.91,2.257,46.91,2.446z M50.332,8.89
		c0.052,0,0.086,0.078,0.103,0.232c0.043,0.594,0.121,1.033,0.233,1.317c0.051,0.129,0.077,0.237,0.077,0.323
		c0,0.241-0.192,0.444-0.575,0.607c-0.383,0.164-0.82,0.246-1.311,0.246c-0.491,0-0.87-0.093-1.137-0.277
		c-0.267-0.185-0.448-0.459-0.542-0.82c-0.094-0.362-0.15-0.887-0.167-1.576c-0.009-0.852-0.061-1.377-0.155-1.575
		c-0.026-0.035-0.039-0.069-0.039-0.104c0-0.095,0.056-0.142,0.167-0.142c0.061,0,0.194,0.05,0.4,0.148
		c0.207,0.099,0.31,0.205,0.31,0.316c0,0.112-0.021,0.229-0.064,0.349c-0.043,0.121-0.084,0.33-0.123,0.626
		c-0.039,0.296-0.058,0.562-0.058,0.794c0,0.233,0.066,0.534,0.2,0.904c0.133,0.37,0.411,0.555,0.833,0.555
		c0.422,0,0.736-0.039,0.942-0.116c0.207-0.077,0.369-0.234,0.484-0.471c0.116-0.237,0.221-0.618,0.316-1.143
		C50.254,8.955,50.289,8.89,50.332,8.89z"/>
	<path display="inline" fill="lime" d="M58.158,7.676c1.541-0.129,2.485-0.221,2.834-0.277c0.349-0.056,0.695-0.084,1.039-0.084
		c0.345,0,0.648,0.084,0.911,0.252c0.263,0.168,0.394,0.321,0.394,0.458c0,0.172-0.155,0.258-0.465,0.258
		c-0.112,0-0.246-0.017-0.4-0.052c-0.568-0.112-1.416-0.167-2.544-0.167c-0.586,0-1.175,0.018-1.769,0.051
		c0,0.431,0.017,0.979,0.051,1.646c0.034,0.667,0.052,1.048,0.052,1.143c0,0.482-0.106,0.88-0.316,1.195
		c-0.211,0.314-0.364,0.471-0.458,0.471c-0.094,0-0.207-0.073-0.335-0.219c-0.302-0.379-0.573-0.681-0.814-0.904
		c-0.112-0.104-0.168-0.183-0.168-0.239s0.037-0.084,0.11-0.084c0.073,0,0.187,0.011,0.342,0.032
		c0.155,0.021,0.314,0.032,0.478,0.032s0.271-0.049,0.323-0.149c0.051-0.099,0.084-0.32,0.097-0.665
		c0.013-0.344,0.02-1.081,0.02-2.208c-1.98,0.138-3.134,0.246-3.461,0.323c-0.327,0.077-0.56,0.116-0.698,0.116
		c-0.138,0-0.312-0.061-0.523-0.181c-0.21-0.12-0.316-0.213-0.316-0.278s0.112-0.097,0.336-0.097c0.491,0,2.044-0.108,4.662-0.323
		c0-0.284-0.021-0.527-0.065-0.729C57.43,6.796,57.348,6.6,57.228,6.411c-0.069-0.12-0.103-0.219-0.103-0.297
		c0-0.078,0.058-0.117,0.174-0.117c0.116,0,0.316,0.059,0.601,0.175c0.285,0.116,0.426,0.251,0.426,0.407
		c0,0.069-0.023,0.181-0.071,0.335C58.208,7.069,58.175,7.324,58.158,7.676z M57.525,3.363c0.801-0.172,1.261-0.344,1.382-0.517
		c0.077-0.112,0.179-0.168,0.304-0.168s0.321,0.069,0.587,0.207c0.266,0.138,0.401,0.25,0.401,0.336
		c0,0.086-0.086,0.191-0.259,0.316c-0.172,0.125-0.32,0.332-0.446,0.62c-0.125,0.289-0.187,0.579-0.187,0.872
		s0.073,0.519,0.22,0.678c0.146,0.159,0.431,0.239,0.853,0.239c0.421,0,0.731-0.056,0.929-0.167c0.198-0.112,0.36-0.338,0.485-0.679
		c0.125-0.34,0.213-0.51,0.265-0.51c0.052,0,0.083,0.121,0.097,0.362c0.013,0.241,0.056,0.456,0.129,0.646
		c0.073,0.189,0.11,0.323,0.11,0.4c0,0.172-0.194,0.328-0.581,0.465c-0.389,0.137-0.8,0.206-1.234,0.206
		c-0.435,0-0.84-0.088-1.214-0.265c-0.375-0.176-0.562-0.557-0.562-1.143c0-0.241,0.031-0.566,0.09-0.976
		c0.061-0.409,0.09-0.617,0.09-0.626c0-0.129-0.062-0.193-0.187-0.193s-0.583,0.099-1.375,0.297
		c-0.155,0.56-0.371,1.052-0.646,1.479c-0.276,0.426-0.603,0.779-0.981,1.059c-0.379,0.28-0.777,0.489-1.194,0.626
		c-0.418,0.138-0.699,0.207-0.846,0.207c-0.086,0-0.129-0.021-0.129-0.064s0.095-0.107,0.284-0.193
		c1.489-0.68,2.432-1.657,2.828-2.932c-0.611,0.181-1,0.308-1.169,0.381c-0.167,0.073-0.31,0.11-0.426,0.11
		c-0.116,0-0.252-0.056-0.407-0.168c-0.155-0.112-0.232-0.207-0.232-0.284c0-0.077,0.14-0.123,0.419-0.135
		c0.28-0.013,0.924-0.127,1.931-0.343c0.104-0.474,0.155-0.884,0.155-1.233c0-0.348-0.043-0.596-0.129-0.742
		c-0.086-0.146-0.129-0.258-0.129-0.336C56.75,1.064,56.832,1,56.996,1s0.379,0.062,0.646,0.187c0.266,0.125,0.4,0.261,0.4,0.407
		c0,0.086-0.034,0.172-0.103,0.259C57.896,1.904,57.758,2.407,57.525,3.363z M55.343,8.994c0.06,0,0.112,0.05,0.155,0.148
		c0.043,0.099,0.064,0.224,0.064,0.375s-0.066,0.366-0.2,0.646c-0.133,0.28-0.357,0.579-0.671,0.897
		c-0.314,0.319-0.538,0.479-0.671,0.479c-0.134,0-0.2-0.151-0.2-0.453c0-0.154,0.037-0.299,0.11-0.433
		c0.073-0.133,0.204-0.291,0.394-0.471c0.37-0.353,0.645-0.693,0.826-1.02C55.209,9.05,55.274,8.994,55.343,8.994z M61.722,11.085
		c0,0.172-0.028,0.306-0.084,0.4c-0.056,0.095-0.131,0.143-0.226,0.143c-0.112,0-0.222-0.078-0.329-0.233
		c-0.108-0.155-0.368-0.495-0.782-1.02l-0.749-0.943c-0.069-0.104-0.104-0.181-0.104-0.232c0-0.042,0.026-0.065,0.078-0.065
		c0.095,0,0.316,0.065,0.665,0.194s0.637,0.276,0.865,0.439s0.396,0.351,0.503,0.562C61.668,10.541,61.722,10.793,61.722,11.085z"/>
	<path display="inline" fill="lime" d="M66.733,8.141c0.086,0,0.153,0.086,0.2,0.259c0.047,0.173,0.071,0.34,0.071,0.503
		c0,0.353-0.131,0.783-0.394,1.292c-0.263,0.508-0.523,0.762-0.781,0.762c-0.172,0-0.259-0.099-0.259-0.297
		c0-0.128,0.024-0.307,0.071-0.535s0.168-0.467,0.362-0.717c0.193-0.25,0.394-0.633,0.6-1.15C66.638,8.18,66.681,8.141,66.733,8.141
		z M71.046,4.074c0.543-0.104,0.917-0.19,1.124-0.259c0.473-0.164,0.833-0.246,1.078-0.246c0.246,0,0.46,0.039,0.646,0.116
		c0.186,0.078,0.278,0.168,0.278,0.271c0,0.104-0.142,0.205-0.426,0.304c-0.284,0.099-0.76,0.186-1.427,0.258
		c-0.667,0.073-1.104,0.126-1.311,0.162l-0.116,1.691c0.481-0.077,0.809-0.146,0.981-0.207c0.181-0.043,0.368-0.065,0.562-0.065
		s0.366,0.047,0.517,0.142c0.151,0.095,0.227,0.188,0.227,0.278s-0.067,0.164-0.2,0.22c-0.134,0.056-0.321,0.083-0.562,0.083
		c-0.905,0.009-1.963,0.143-3.177,0.4c-0.345,0.069-0.583,0.104-0.717,0.104c-0.134,0-0.292-0.043-0.478-0.129
		c-0.186-0.086-0.278-0.162-0.278-0.226c0-0.065,0.099-0.108,0.297-0.129c0.198-0.021,0.947-0.144,2.247-0.368l0.039-1.705
		c-0.654,0.086-1.125,0.157-1.414,0.212c-0.289,0.057-0.544,0.084-0.768,0.084s-0.424-0.047-0.601-0.142
		c-0.176-0.095-0.265-0.176-0.265-0.245c0-0.069,0.086-0.112,0.259-0.129c0.775-0.06,1.708-0.181,2.802-0.362
		c0.017-0.732-0.005-1.276-0.065-1.633c-0.06-0.357-0.185-0.631-0.375-0.82c-0.051-0.052-0.077-0.107-0.077-0.168
		c0-0.129,0.112-0.194,0.336-0.194c0.172,0,0.411,0.065,0.717,0.194c0.305,0.129,0.458,0.275,0.458,0.439
		c0,0.069-0.026,0.168-0.077,0.297C71.184,2.528,71.106,3.118,71.046,4.074z M72.932,9.368c0.043,0,0.099,0.043,0.168,0.129
		c0.628,0.809,1.239,1.373,1.834,1.691c0.085,0.051,0.129,0.125,0.129,0.22c0,0.232-0.332,0.43-0.995,0.594
		s-1.322,0.246-1.976,0.246c-0.93,0-1.709-0.157-2.337-0.472c-0.628-0.314-1.081-0.833-1.356-1.556
		c-0.275-0.723-0.413-1.253-0.413-1.589c0-0.138,0.052-0.207,0.155-0.207c0.051,0,0.103,0.022,0.155,0.065
		c0.052,0.043,0.086,0.094,0.103,0.155c0.207,0.68,0.424,1.216,0.652,1.607c0.228,0.392,0.562,0.676,1.001,0.853
		c0.439,0.176,0.891,0.265,1.356,0.265c0.465,0,0.878-0.03,1.24-0.09s0.566-0.104,0.613-0.129c0.047-0.025,0.071-0.077,0.071-0.155
		c0-0.181-0.138-0.654-0.413-1.42c-0.017-0.051-0.025-0.099-0.025-0.142C72.893,9.39,72.906,9.368,72.932,9.368z M71.511,8.929
		c0,0.121-0.028,0.229-0.084,0.323c-0.056,0.095-0.138,0.142-0.245,0.142c-0.108,0-0.276-0.118-0.504-0.355
		C70.45,8.802,70.26,8.567,70.11,8.335c-0.151-0.232-0.226-0.373-0.226-0.42s0.034-0.071,0.103-0.071
		c0.353,0,0.695,0.102,1.026,0.303C71.345,8.351,71.511,8.61,71.511,8.929z M73.655,7.638c0.267,0,0.618,0.058,1.053,0.174
		c0.435,0.117,0.747,0.308,0.937,0.575c0.189,0.267,0.284,0.517,0.284,0.749c0,0.121-0.03,0.222-0.09,0.304
		c-0.061,0.082-0.14,0.123-0.239,0.123s-0.215-0.049-0.349-0.148c-0.133-0.099-0.413-0.34-0.839-0.723
		c-0.426-0.383-0.689-0.631-0.789-0.743c-0.099-0.111-0.148-0.191-0.148-0.238C73.474,7.662,73.534,7.638,73.655,7.638z"/>
	<path display="inline" fill="lime" d="M84.322,3.957c0.413-0.559,0.624-1.024,0.632-1.395c0.008-0.181,0.062-0.271,0.162-0.271
		c0.099,0,0.279,0.088,0.542,0.265c0.263,0.176,0.394,0.351,0.394,0.522c0,0.095-0.05,0.175-0.148,0.239
		c-0.099,0.064-0.22,0.166-0.362,0.303c-0.142,0.138-0.428,0.444-0.858,0.917c0.172,0.457,0.312,1.048,0.419,1.776
		s0.162,1.448,0.162,2.163c0,1.059-0.121,1.871-0.361,2.435c-0.241,0.564-0.461,0.845-0.659,0.845c-0.086,0-0.185-0.09-0.297-0.271
		c-0.138-0.258-0.332-0.486-0.581-0.684c-0.249-0.198-0.375-0.328-0.375-0.388s0.043-0.09,0.129-0.09s0.2,0.013,0.342,0.039
		c0.143,0.026,0.284,0.039,0.426,0.039s0.254-0.062,0.335-0.187c0.082-0.125,0.164-0.422,0.246-0.891
		c0.082-0.47,0.123-0.956,0.123-1.459c0-0.504-0.013-0.915-0.039-1.233c-0.379,0.723-0.811,1.36-1.298,1.911
		c-0.486,0.551-0.904,0.925-1.253,1.124c-0.348,0.198-0.587,0.297-0.716,0.297c-0.052,0-0.078-0.017-0.078-0.051
		c0-0.069,0.103-0.185,0.31-0.349c0.421-0.353,0.934-0.91,1.537-1.672c0.603-0.762,1.059-1.518,1.369-2.267
		c-0.06-0.292-0.12-0.512-0.181-0.659c-0.723,0.646-1.263,1.05-1.621,1.214c-0.357,0.163-0.583,0.245-0.678,0.245
		c-0.095,0-0.143-0.013-0.143-0.038c0-0.078,0.129-0.211,0.388-0.4c0.68-0.474,1.278-1.003,1.795-1.589
		c-0.225-0.327-0.663-0.719-1.317-1.175c-0.146-0.095-0.22-0.179-0.22-0.252c0-0.073,0.067-0.109,0.2-0.109s0.383,0.107,0.749,0.322
		C83.765,3.398,84.072,3.656,84.322,3.957z M90.611,9.317c-0.104-0.155-0.222-0.323-0.355-0.504c-0.134-0.181-0.2-0.301-0.2-0.362
		s0.03-0.09,0.09-0.09c0.207,0,0.614,0.208,1.221,0.626c0.607,0.417,0.91,0.884,0.91,1.401c0,0.164-0.032,0.325-0.097,0.484
		s-0.149,0.239-0.252,0.239c-0.164,0-0.353-0.186-0.568-0.556c-0.215-0.37-0.4-0.68-0.556-0.93
		c-1.077,0.293-1.976,0.564-2.699,0.814s-1.196,0.439-1.42,0.568c-0.181,0.095-0.321,0.142-0.42,0.142
		c-0.099,0-0.243-0.101-0.432-0.303c-0.19-0.202-0.285-0.355-0.285-0.458s0.09-0.155,0.271-0.155l0.232,0.013
		c0.215,0,1.003-0.15,2.363-0.452L88.44,7.65l-1.02,0.116c0.008,0.164,0.002,0.297-0.02,0.4c-0.021,0.104-0.062,0.155-0.123,0.155
		c-0.06,0-0.131-0.069-0.213-0.207c-0.082-0.137-0.145-0.305-0.187-0.504c-0.258-1.222-0.491-1.945-0.697-2.169
		c-0.078-0.086-0.117-0.159-0.117-0.22c0-0.078,0.052-0.116,0.155-0.116c0.104,0,0.226,0.013,0.368,0.039s0.252,0.069,0.329,0.129
		c0.422-0.034,0.934-0.112,1.537-0.232c0.017-1.567-0.1-2.531-0.349-2.893C88,2.01,87.948,1.889,87.948,1.786
		c0-0.104,0.073-0.155,0.219-0.155c0.147,0,0.39,0.071,0.73,0.213c0.34,0.142,0.51,0.308,0.51,0.497c0,0.095-0.024,0.2-0.071,0.317
		c-0.047,0.116-0.086,0.389-0.116,0.819c-0.03,0.431-0.054,0.9-0.071,1.408c0.603-0.155,0.996-0.279,1.182-0.375
		c0.185-0.095,0.346-0.142,0.484-0.142c0.138,0,0.364,0.084,0.678,0.251c0.314,0.168,0.472,0.306,0.472,0.414
		c0,0.108-0.093,0.236-0.278,0.387s-0.379,0.387-0.582,0.71c-0.202,0.323-0.303,0.525-0.303,0.607s0.039,0.172,0.116,0.271
		c0.077,0.099,0.116,0.179,0.116,0.239c0,0.061-0.095,0.099-0.284,0.117l-1.679,0.207L89.01,9.665L90.611,9.317z M88.455,5.39
		c-0.379,0.078-0.844,0.147-1.395,0.207c0.103,0.474,0.211,1.076,0.323,1.808c0.508-0.051,0.861-0.094,1.059-0.129L88.455,5.39z
		 M89.087,7.173c0.405-0.069,0.68-0.136,0.827-0.2c0.146-0.065,0.252-0.168,0.316-0.31s0.129-0.366,0.194-0.671
		c0.065-0.305,0.097-0.541,0.097-0.704c0-0.121-0.084-0.181-0.251-0.181c-0.168,0-0.545,0.052-1.13,0.155L89.087,7.173z"/>
	<path display="inline" fill="lime" d="M100.452,10.117c1.679-0.198,2.77-0.297,3.273-0.297s0.882,0.097,1.137,0.291
		c0.254,0.194,0.381,0.359,0.381,0.497c0,0.172-0.186,0.258-0.555,0.258c-0.216,0-0.525-0.043-0.93-0.129
		c-0.405-0.086-0.966-0.129-1.685-0.129c-0.719,0-1.651,0.054-2.796,0.161c-1.146,0.108-2.006,0.248-2.583,0.42
		c-0.577,0.172-0.94,0.258-1.091,0.258s-0.325-0.09-0.523-0.271c-0.198-0.181-0.297-0.295-0.297-0.342s0.142-0.08,0.426-0.097
		l4.713-0.556c0.654-1.403,0.981-2.514,0.981-3.332c0-0.172-0.023-0.314-0.071-0.426c-0.047-0.111-0.071-0.213-0.071-0.303
		c0-0.09,0.056-0.135,0.167-0.135c0.111,0,0.333,0.094,0.665,0.284c0.332,0.189,0.497,0.353,0.497,0.49
		c0,0.138-0.062,0.293-0.187,0.465C101.779,7.396,101.295,8.361,100.452,10.117z M102.376,4.551c0.25,0,0.445,0.049,0.587,0.148
		c0.142,0.099,0.213,0.191,0.213,0.278c0,0.189-0.353,0.332-1.06,0.426c-0.164,0.018-0.572,0.086-1.227,0.207
		c-0.655,0.121-1.132,0.216-1.433,0.284c-0.638,0.129-1.249,0.194-1.834,0.194c-0.284,0-0.517-0.043-0.697-0.129
		c-0.181-0.086-0.271-0.151-0.271-0.194c0-0.077,0.193-0.129,0.582-0.155c0.387-0.025,0.973-0.122,1.756-0.291
		c0.784-0.167,1.463-0.338,2.041-0.51C101.609,4.637,102.057,4.551,102.376,4.551z M99.069,8.451c0,0.164-0.03,0.332-0.09,0.503
		c-0.06,0.172-0.142,0.259-0.245,0.259s-0.207-0.067-0.31-0.2c-0.104-0.134-0.254-0.439-0.453-0.917
		c-0.198-0.478-0.297-0.777-0.297-0.897c0-0.104,0.054-0.155,0.162-0.155c0.107,0,0.34,0.151,0.697,0.452
		C98.891,7.797,99.069,8.115,99.069,8.451z M99.367,2.33c0.465,0,0.853,0.099,1.162,0.297c0.31,0.198,0.465,0.452,0.465,0.762
		c0,0.129-0.034,0.232-0.103,0.31c-0.069,0.077-0.17,0.116-0.304,0.116c-0.133,0-0.34-0.092-0.62-0.277
		c-0.279-0.185-0.557-0.396-0.833-0.633c-0.275-0.237-0.413-0.386-0.413-0.445C98.721,2.373,98.936,2.33,99.367,2.33z"/>
	<path display="inline" fill="lime" d="M108.768,6.049c0,0.129-0.025,0.248-0.077,0.355c-0.052,0.108-0.125,0.162-0.22,0.162
		c-0.155,0-0.379-0.192-0.671-0.575c-0.293-0.383-0.439-0.607-0.439-0.672c0-0.064,0.039-0.097,0.116-0.097
		c0.215,0,0.484,0.077,0.807,0.232C108.607,5.61,108.768,5.808,108.768,6.049z M109.504,7.186c0,0.069-0.017,0.164-0.052,0.284
		c-0.525,1.688-0.843,2.833-0.955,3.435c-0.078,0.405-0.168,0.607-0.271,0.607c-0.104,0-0.252-0.174-0.446-0.523
		c-0.194-0.349-0.291-0.577-0.291-0.684c0-0.108,0.051-0.183,0.155-0.227c0.146-0.051,0.306-0.213,0.478-0.484
		c0.172-0.271,0.525-0.992,1.059-2.164c0.104-0.232,0.194-0.348,0.271-0.348C109.487,7.083,109.504,7.117,109.504,7.186z
		 M108.407,2.782c0.284,0,0.564,0.088,0.839,0.265c0.275,0.176,0.413,0.389,0.413,0.639c0,0.155-0.03,0.28-0.09,0.375
		s-0.138,0.142-0.232,0.142c-0.172,0-0.392-0.2-0.659-0.6c-0.267-0.4-0.4-0.637-0.4-0.71C108.277,2.819,108.32,2.782,108.407,2.782z
		 M111.493,5.417c0.396-0.104,0.681-0.194,0.853-0.271c0.172-0.077,0.325-0.116,0.458-0.116c0.134,0,0.325,0.062,0.575,0.188
		c0.25,0.125,0.374,0.23,0.374,0.316s-0.043,0.172-0.129,0.258s-0.155,0.192-0.207,0.316c-0.051,0.125-0.153,0.392-0.303,0.801
		c-0.151,0.409-0.251,0.666-0.304,0.769c-0.051,0.104-0.105,0.155-0.161,0.155s-0.114-0.015-0.174-0.045
		c-0.061-0.03-0.144-0.045-0.252-0.045c-0.108,0-0.312,0.031-0.613,0.09c0.129,0.112,0.208,0.231,0.239,0.355
		c0.03,0.125,0.037,0.33,0.02,0.613c0.757-0.207,1.19-0.31,1.298-0.31c0.107,0,0.187,0.02,0.239,0.058
		c0.052,0.039,0.078,0.08,0.078,0.123c0,0.12-0.177,0.215-0.529,0.284c-0.353,0.069-0.724,0.151-1.111,0.246
		c-0.018,0.379-0.026,0.781-0.026,1.208c0,0.427-0.033,0.803-0.097,1.13c-0.064,0.327-0.153,0.49-0.265,0.49
		c-0.078,0-0.153-0.095-0.226-0.284c-0.074-0.19-0.11-0.364-0.11-0.523c0-0.159,0.017-0.295,0.051-0.407
		c0.086-0.275,0.146-0.775,0.181-1.498c-0.439,0.112-0.853,0.253-1.24,0.426c-0.146,0.06-0.273,0.09-0.381,0.09
		s-0.224-0.054-0.349-0.162c-0.125-0.107-0.187-0.187-0.187-0.239c0-0.052,0.129-0.094,0.387-0.129
		c0.379-0.052,0.973-0.177,1.783-0.375c0-0.465-0.022-0.805-0.065-1.02l-0.542,0.128c-0.044,0.086-0.095,0.129-0.155,0.129
		c-0.095,0-0.164-0.107-0.207-0.323c-0.146-0.706-0.252-1.173-0.317-1.401c-0.064-0.228-0.138-0.4-0.219-0.517
		c-0.082-0.116-0.123-0.202-0.123-0.258s0.037-0.084,0.11-0.084c0.073,0,0.174,0.021,0.304,0.064
		c0.215-0.008,0.538-0.061,0.968-0.155l0.232-1.188c-0.232,0.035-0.431,0.052-0.594,0.052c-0.164,0-0.291-0.03-0.381-0.09
		s-0.135-0.112-0.135-0.155c0-0.042,0.064-0.077,0.193-0.103c0.318-0.061,0.659-0.142,1.021-0.245
		c0.051-0.354,0.077-0.73,0.077-1.13c0-0.4-0.026-0.663-0.077-0.788c-0.052-0.125-0.078-0.22-0.078-0.284s0.045-0.097,0.136-0.097
		c0.091,0,0.276,0.054,0.556,0.162c0.279,0.108,0.419,0.227,0.419,0.355c0,0.061-0.025,0.134-0.078,0.22
		c-0.086,0.172-0.236,0.637-0.452,1.395c0.43-0.155,0.717-0.232,0.859-0.232s0.269,0.019,0.381,0.058
		c0.112,0.039,0.168,0.099,0.168,0.181s-0.147,0.183-0.439,0.303c-0.292,0.121-0.667,0.228-1.124,0.323L111.493,5.417z
		 M110.77,7.715c0.689-0.112,1.132-0.194,1.331-0.245c0.198-0.052,0.321-0.116,0.368-0.194c0.047-0.077,0.104-0.292,0.167-0.646
		c0.064-0.353,0.097-0.637,0.097-0.852c0-0.19-0.086-0.285-0.258-0.285c-0.112,0-0.398,0.067-0.859,0.2
		c-0.461,0.134-0.842,0.213-1.143,0.239c0.06,0.181,0.116,0.443,0.168,0.788c0.68-0.267,1.124-0.4,1.331-0.4
		c0.069,0,0.129,0.018,0.181,0.052c0.051,0.035,0.077,0.069,0.077,0.104c0,0.103-0.157,0.198-0.471,0.284
		c-0.314,0.086-0.544,0.129-0.691,0.129c-0.146,0-0.279-0.009-0.399-0.026C110.718,7.208,110.752,7.491,110.77,7.715z
		 M114.734,3.854c0.267-0.026,0.551-0.097,0.853-0.213c0.301-0.116,0.51-0.219,0.626-0.31c0.116-0.091,0.245-0.136,0.387-0.136
		s0.357,0.074,0.646,0.22s0.433,0.263,0.433,0.349s-0.043,0.193-0.129,0.322c-0.138,0.207-0.207,0.605-0.207,1.195
		c0,0.589,0.026,1.487,0.078,2.692l0.116,2.776c0,0.491-0.092,0.913-0.277,1.266c-0.186,0.353-0.321,0.53-0.407,0.53
		s-0.172-0.086-0.258-0.259c-0.259-0.499-0.603-0.951-1.033-1.355c-0.061-0.052-0.09-0.1-0.09-0.143s0.023-0.064,0.071-0.064
		s0.093,0.009,0.136,0.025c0.439,0.155,0.721,0.233,0.846,0.233s0.203-0.082,0.232-0.245c0.03-0.164,0.045-0.599,0.045-1.305
		s-0.018-1.73-0.052-3.073c-0.035-1.343-0.08-2.103-0.135-2.28c-0.057-0.176-0.149-0.265-0.278-0.265
		c-0.034,0-0.073,0.009-0.116,0.026c-0.645,0.181-1.071,0.271-1.278,0.271c0.061,0.439,0.078,1.016,0.052,1.731
		c0.517-0.198,0.828-0.297,0.936-0.297s0.209,0.02,0.304,0.058c0.095,0.039,0.142,0.088,0.142,0.149
		c0,0.103-0.153,0.191-0.458,0.264c-0.306,0.074-0.516,0.11-0.632,0.11c-0.117,0-0.213-0.004-0.291-0.013
		c-0.018,0.568-0.056,1.102-0.117,1.601c0.525-0.198,0.904-0.297,1.137-0.297c0.112,0,0.204,0.022,0.277,0.065
		c0.073,0.043,0.11,0.094,0.11,0.155c0,0.06-0.024,0.116-0.071,0.168c-0.047,0.051-0.2,0.104-0.458,0.155
		c-0.259,0.051-0.463,0.077-0.614,0.077c-0.15,0-0.286-0.034-0.407-0.103c-0.138,0.913-0.383,1.698-0.736,2.357
		c-0.353,0.658-0.723,1.162-1.11,1.511c-0.387,0.349-0.632,0.523-0.736,0.523c-0.035,0-0.052-0.021-0.052-0.065
		c0-0.043,0.034-0.107,0.103-0.194c0.74-0.843,1.272-1.743,1.595-2.699c0.323-0.956,0.485-2.139,0.485-3.552
		c0-0.886-0.086-1.446-0.258-1.678c-0.078-0.104-0.117-0.196-0.117-0.278s0.067-0.123,0.2-0.123
		C114.358,3.738,114.528,3.776,114.734,3.854z"/>
	<path display="inline" fill="lime" d="M120.598,5.339c0.207,0,0.482,0.082,0.826,0.246c0.345,0.163,0.517,0.413,0.517,0.749
		c0,0.259-0.097,0.388-0.29,0.388c-0.194,0-0.448-0.185-0.762-0.555s-0.471-0.601-0.471-0.691
		C120.418,5.386,120.477,5.339,120.598,5.339z M123.103,7.083c0,0.051-0.017,0.125-0.051,0.22c-0.732,1.885-1.158,3.172-1.279,3.861
		c-0.06,0.37-0.159,0.556-0.297,0.556c-0.138,0-0.297-0.208-0.478-0.626c-0.181-0.418-0.271-0.695-0.271-0.833
		c0-0.078,0.035-0.121,0.104-0.129c0.258-0.009,0.491-0.211,0.697-0.607c0.275-0.534,0.564-1.07,0.865-1.608
		c0.301-0.538,0.474-0.831,0.517-0.878c0.042-0.047,0.086-0.071,0.129-0.071S123.103,7.004,123.103,7.083z M121.747,2.988
		c0.413,0,0.751,0.09,1.014,0.271c0.263,0.181,0.394,0.431,0.394,0.749c0,0.241-0.1,0.362-0.297,0.362
		c-0.198,0-0.476-0.192-0.833-0.575c-0.357-0.383-0.536-0.613-0.536-0.691C121.488,3.027,121.575,2.988,121.747,2.988z
		 M125.079,8.451c0,0.043-0.009,0.082-0.026,0.116c-0.069,0.198-0.138,0.457-0.207,0.775c-0.121,0.603-0.306,1.083-0.556,1.44
		c-0.25,0.357-0.529,0.607-0.839,0.749c-0.31,0.142-0.521,0.213-0.633,0.213c-0.112,0-0.168-0.024-0.168-0.071
		c0-0.048,0.043-0.097,0.129-0.148c0.508-0.344,0.898-0.771,1.169-1.279c0.271-0.508,0.407-1.024,0.407-1.549
		c0-0.181-0.013-0.325-0.039-0.433s-0.038-0.192-0.038-0.252c0-0.06,0.045-0.09,0.135-0.09c0.09,0,0.224,0.052,0.4,0.155
		C124.99,8.18,125.079,8.305,125.079,8.451z M126.021,4.486c-0.585,0.095-0.996,0.142-1.233,0.142c-0.237,0-0.429-0.028-0.575-0.083
		c-0.146-0.056-0.22-0.11-0.22-0.162c0-0.051,0.082-0.081,0.246-0.09c0.93-0.085,2.251-0.37,3.965-0.852
		c0.344-0.095,0.611-0.142,0.801-0.142c0.189,0,0.366,0.033,0.529,0.097c0.163,0.065,0.245,0.143,0.245,0.233
		s-0.14,0.181-0.42,0.271c-0.279,0.09-1.203,0.261-2.77,0.51c0.207,0.146,0.31,0.284,0.31,0.413c0,0.069-0.031,0.125-0.09,0.168
		c-0.517,0.344-1.038,0.831-1.563,1.459c1.214-0.258,2.113-0.439,2.699-0.543c-0.284-0.438-0.426-0.684-0.426-0.735
		c0-0.052,0.039-0.078,0.116-0.078c0.078,0,0.263,0.062,0.556,0.188c0.292,0.125,0.508,0.258,0.646,0.4
		c0.138,0.142,0.207,0.325,0.207,0.549c0,0.387-0.082,0.581-0.245,0.581c-0.138,0-0.362-0.219-0.672-0.659
		c-0.844,0.181-1.562,0.377-2.156,0.588c-0.594,0.211-1.02,0.411-1.278,0.6c-0.103,0.078-0.193,0.117-0.271,0.117
		c-0.077,0-0.142-0.073-0.194-0.22c-0.051-0.146-0.077-0.258-0.077-0.335c0-0.078,0.028-0.153,0.084-0.226
		c0.056-0.073,0.126-0.125,0.213-0.155c0.086-0.03,0.192-0.086,0.316-0.168c0.125-0.082,0.224-0.157,0.297-0.226
		c0.073-0.069,0.187-0.208,0.342-0.419c0.155-0.211,0.275-0.388,0.361-0.529c0.086-0.142,0.15-0.269,0.194-0.381
		C126,4.685,126.021,4.582,126.021,4.486z M126.706,8.193c0,0.035-0.018,0.086-0.052,0.155c-0.061,0.129-0.09,0.75-0.09,1.86
		c0,0.388-0.039,0.697-0.116,0.93c-0.078,0.232-0.158,0.348-0.239,0.348c-0.082,0-0.155-0.105-0.22-0.316
		c-0.065-0.21-0.084-0.385-0.059-0.523c0.078-0.379,0.117-0.833,0.117-1.362c0-0.529-0.078-0.962-0.233-1.298
		c-0.017-0.034-0.025-0.069-0.025-0.103c0-0.095,0.045-0.143,0.135-0.143c0.09,0,0.244,0.047,0.459,0.143
		C126.598,7.978,126.706,8.082,126.706,8.193z M127.623,2.446c0,0.414-0.108,0.62-0.323,0.62c-0.215,0-0.472-0.189-0.769-0.569
		c-0.297-0.378-0.445-0.611-0.445-0.697c0-0.085,0.086-0.129,0.258-0.129c0.336,0,0.633,0.082,0.891,0.245
		C127.494,2.081,127.623,2.257,127.623,2.446z M131.045,8.89c0.051,0,0.085,0.078,0.103,0.232c0.043,0.594,0.12,1.033,0.232,1.317
		c0.052,0.129,0.077,0.237,0.077,0.323c0,0.241-0.191,0.444-0.575,0.607c-0.383,0.164-0.82,0.246-1.311,0.246
		c-0.491,0-0.87-0.093-1.137-0.277c-0.267-0.185-0.447-0.459-0.542-0.82c-0.095-0.362-0.151-0.887-0.167-1.576
		c-0.009-0.852-0.061-1.377-0.155-1.575c-0.026-0.035-0.039-0.069-0.039-0.104c0-0.095,0.056-0.142,0.168-0.142
		c0.06,0,0.194,0.05,0.4,0.148c0.207,0.099,0.31,0.205,0.31,0.316c0,0.112-0.021,0.229-0.065,0.349
		c-0.043,0.121-0.084,0.33-0.122,0.626c-0.039,0.297-0.059,0.562-0.059,0.794c0,0.233,0.067,0.534,0.2,0.904
		c0.134,0.37,0.411,0.555,0.833,0.555c0.422,0,0.736-0.039,0.943-0.116c0.206-0.077,0.368-0.234,0.484-0.471
		c0.116-0.237,0.221-0.618,0.316-1.143C130.967,8.955,131.001,8.89,131.045,8.89z"/>
	<path display="inline" fill="lime" d="M134.467,5.946c0,0.164-0.03,0.31-0.09,0.439c-0.061,0.129-0.144,0.193-0.252,0.193
		s-0.205-0.052-0.291-0.155s-0.213-0.331-0.381-0.684c-0.168-0.354-0.252-0.566-0.252-0.64c0-0.073,0.056-0.109,0.168-0.109
		c0.241,0,0.484,0.082,0.729,0.245C134.345,5.399,134.467,5.636,134.467,5.946z M135.513,6.179c0,0.112-0.071,0.342-0.213,0.69
		c-0.142,0.349-0.332,0.9-0.568,1.653c-0.237,0.754-0.383,1.283-0.439,1.589c-0.056,0.306-0.138,0.458-0.245,0.458
		c-0.108,0-0.26-0.159-0.458-0.478c-0.198-0.318-0.297-0.549-0.297-0.691s0.03-0.226,0.09-0.252c0.198-0.06,0.435-0.332,0.71-0.813
		c0.095-0.198,0.302-0.577,0.62-1.136c0.318-0.56,0.515-0.885,0.587-0.975c0.073-0.09,0.127-0.135,0.162-0.135
		C135.496,6.088,135.513,6.118,135.513,6.179z M135.604,3.518c0,0.155-0.03,0.28-0.09,0.375c-0.06,0.095-0.146,0.142-0.258,0.142
		c-0.232,0-0.46-0.194-0.684-0.581c-0.224-0.387-0.336-0.631-0.336-0.73s0.054-0.148,0.161-0.148c0.108,0,0.269,0.037,0.485,0.11
		c0.215,0.073,0.389,0.187,0.522,0.342C135.537,3.182,135.604,3.346,135.604,3.518z M137.941,5.055c0,0.086-0.013,0.176-0.039,0.271
		c-0.052,0.198-0.099,0.71-0.142,1.537c-0.035,1.059-0.207,1.92-0.517,2.583c-0.31,0.663-0.745,1.167-1.304,1.511
		c-0.559,0.344-0.947,0.517-1.162,0.517c-0.095,0-0.142-0.035-0.142-0.104c0-0.069,0.06-0.133,0.181-0.194
		c0.904-0.517,1.537-1.181,1.898-1.995c0.362-0.813,0.543-1.943,0.543-3.39c0-0.481-0.03-0.783-0.09-0.904
		c-0.061-0.12-0.09-0.215-0.09-0.284s0.042-0.103,0.129-0.103c0.086,0,0.23,0.045,0.433,0.136
		C137.84,4.726,137.941,4.865,137.941,5.055z M136.495,3.26c0.585-0.078,1.123-0.237,1.614-0.478
		c0.085-0.043,0.176-0.064,0.271-0.064c0.095,0,0.286,0.082,0.574,0.246s0.433,0.288,0.433,0.375c0,0.086-0.024,0.207-0.071,0.361
		c-0.047,0.155-0.08,0.306-0.097,0.452c-0.018,0.146-0.026,0.349-0.026,0.607l0.051,2.505c0,0.232-0.041,0.517-0.122,0.852
		c-0.082,0.336-0.183,0.503-0.304,0.503c-0.078,0-0.151-0.06-0.219-0.181c-0.069-0.12-0.104-0.264-0.104-0.432
		s0.017-0.344,0.051-0.53c0.034-0.185,0.052-0.478,0.052-0.878s-0.02-0.996-0.059-1.789c-0.039-0.792-0.092-1.237-0.161-1.336
		c-0.069-0.099-0.172-0.148-0.31-0.148c-0.138,0-0.347,0.035-0.626,0.104c-0.279,0.069-0.536,0.125-0.768,0.167
		c0.008,0.646,0.004,1.225-0.013,1.737c-0.018,0.512-0.047,1.053-0.09,1.621c-0.043,0.568-0.077,0.913-0.104,1.033
		c-0.026,0.121-0.073,0.237-0.142,0.349c-0.069,0.112-0.116,0.181-0.142,0.207s-0.061,0.039-0.104,0.039s-0.099-0.064-0.168-0.194
		c-0.069-0.129-0.104-0.252-0.104-0.368c0-0.116,0.034-0.316,0.104-0.601c0.146-0.568,0.22-1.285,0.22-2.15
		c0-0.866-0.028-1.377-0.084-1.537c-0.056-0.159-0.084-0.273-0.084-0.342c0-0.12,0.056-0.181,0.168-0.181
		C136.245,3.208,136.366,3.226,136.495,3.26z M139.362,10.401c0,0.155-0.028,0.275-0.084,0.361c-0.056,0.086-0.123,0.129-0.2,0.129
		c-0.078,0-0.14-0.026-0.188-0.078c-0.048-0.052-0.196-0.262-0.445-0.633c-0.25-0.37-0.443-0.652-0.581-0.846
		c-0.138-0.193-0.207-0.325-0.207-0.394s0.047-0.104,0.143-0.104c0.094,0,0.379,0.162,0.852,0.485
		C139.125,9.646,139.362,10.005,139.362,10.401z M140.912,5.081l0.077,2.066c0,0.361-0.035,0.667-0.104,0.917
		c-0.069,0.25-0.153,0.374-0.251,0.374c-0.099,0-0.189-0.087-0.271-0.264c-0.082-0.177-0.122-0.323-0.122-0.439
		c0-0.116,0.01-0.256,0.032-0.42c0.021-0.163,0.033-0.372,0.033-0.626s-0.013-0.635-0.039-1.143
		c-0.025-0.508-0.082-0.835-0.168-0.981c-0.086-0.147-0.129-0.261-0.129-0.343s0.056-0.123,0.168-0.123
		c0.112,0,0.273,0.039,0.484,0.116c0.21,0.077,0.316,0.202,0.316,0.375c0,0.043-0.005,0.097-0.013,0.162
		C140.916,4.816,140.912,4.926,140.912,5.081z M142.655,4.681c0,0.895,0.037,2.017,0.109,3.364c0.073,1.347,0.11,2.129,0.11,2.344
		c0,0.543-0.077,0.997-0.232,1.362c-0.155,0.366-0.302,0.549-0.439,0.549c-0.137,0-0.237-0.078-0.297-0.233
		c-0.25-0.517-0.599-1.028-1.046-1.536c-0.069-0.086-0.103-0.157-0.103-0.213c0-0.056,0.03-0.084,0.09-0.084
		c0.034,0,0.17,0.045,0.407,0.136c0.237,0.091,0.409,0.136,0.517,0.136s0.172-0.041,0.194-0.123
		c0.021-0.082,0.047-0.452,0.078-1.111c0.03-0.658,0.045-1.444,0.045-2.357c0-1.489-0.03-2.645-0.09-3.467
		c-0.061-0.822-0.133-1.294-0.22-1.414c-0.12-0.172-0.181-0.304-0.181-0.394c0-0.09,0.056-0.136,0.168-0.136
		c0.112,0,0.331,0.092,0.659,0.277c0.327,0.186,0.491,0.33,0.491,0.433s-0.035,0.237-0.104,0.4
		C142.707,2.838,142.655,3.526,142.655,4.681z"/>
	<path display="inline" fill="lime" d="M148.608,9.239c0.447-0.25,0.807-0.43,1.078-0.542c0.271-0.112,0.437-0.168,0.497-0.168
		s0.09,0.028,0.09,0.084c0,0.056-0.123,0.168-0.368,0.335c-0.246,0.168-0.558,0.452-0.937,0.853c-0.379,0.401-0.62,0.673-0.723,0.82
		c-0.164,0.275-0.292,0.413-0.387,0.413c-0.095,0-0.2-0.103-0.317-0.31c-0.116-0.207-0.174-0.381-0.174-0.523
		c0-0.142,0.034-0.26,0.103-0.355c0.181-0.215,0.295-0.415,0.342-0.601c0.047-0.185,0.102-0.435,0.162-0.749s0.09-0.949,0.09-1.905
		c0-0.336-0.024-0.503-0.071-0.503c-0.048,0-0.102,0.017-0.162,0.051l-0.517,0.258c-0.464,0.25-0.772,0.375-0.923,0.375
		s-0.33-0.052-0.536-0.155c-0.207-0.103-0.31-0.189-0.31-0.258c0-0.069,0.108-0.125,0.323-0.168c0.542-0.103,1-0.234,1.375-0.394
		c0.375-0.159,0.615-0.323,0.723-0.491c0.107-0.168,0.245-0.252,0.414-0.252c0.167,0,0.379,0.039,0.633,0.117
		c0.253,0.077,0.381,0.159,0.381,0.245s-0.073,0.215-0.22,0.387c-0.147,0.172-0.26,0.364-0.342,0.575s-0.142,0.539-0.181,0.981
		C148.614,7.803,148.599,8.43,148.608,9.239z M148.169,1.878c1.137,0,1.705,0.349,1.705,1.046c0,0.258-0.099,0.388-0.297,0.388
		c-0.146,0-0.323-0.071-0.529-0.213c-0.207-0.142-0.472-0.34-0.794-0.594c-0.322-0.254-0.484-0.428-0.484-0.523
		C147.769,1.912,147.902,1.878,148.169,1.878z M153.528,7.186l1.924-0.284c0.335-0.078,0.642-0.116,0.917-0.116
		c0.275,0,0.504,0.071,0.685,0.213c0.181,0.142,0.271,0.273,0.271,0.394c0,0.163-0.125,0.245-0.375,0.245
		c-0.043,0-0.095-0.004-0.155-0.013c-0.438-0.043-0.915-0.064-1.427-0.064c-0.513,0-1.126,0.039-1.84,0.116
		c0.026,0.93,0.039,1.593,0.039,1.989c0,1.214-0.064,2.096-0.194,2.647c-0.128,0.551-0.25,0.827-0.361,0.827
		c-0.06,0-0.11-0.067-0.148-0.2c-0.039-0.134-0.056-0.435-0.052-0.904c0.004-0.469,0.007-0.846,0.007-1.13l0.013-3.151
		c-1.094,0.121-1.771,0.205-2.034,0.252c-0.263,0.047-0.465,0.071-0.607,0.071s-0.301-0.056-0.478-0.167
		c-0.177-0.112-0.265-0.198-0.265-0.259c0-0.06,0.069-0.09,0.207-0.09c0.042,0,0.114,0.006,0.213,0.02
		c0.099,0.014,0.218,0.02,0.355,0.02c0.258,0,1.123-0.099,2.596-0.297V5.959c0-0.921-0.086-1.614-0.259-2.08
		c-0.146,0.009-0.288,0.013-0.426,0.013c-0.405,0-0.708-0.039-0.91-0.117c-0.203-0.077-0.304-0.142-0.304-0.193
		s0.088-0.084,0.265-0.097c0.176-0.013,0.551-0.069,1.124-0.167c0.572-0.099,0.906-0.166,1.001-0.2
		c0.818-0.241,1.311-0.361,1.479-0.361s0.336,0.032,0.503,0.097c0.168,0.064,0.252,0.14,0.252,0.226s-0.086,0.166-0.258,0.239
		c-0.172,0.073-0.814,0.222-1.924,0.446c0.189,0.112,0.285,0.243,0.285,0.394c0,0.151-0.022,0.347-0.065,0.588
		C153.528,4.926,153.511,5.739,153.528,7.186z M150.752,5.158c0.241,0,0.488,0.086,0.743,0.258c0.254,0.172,0.381,0.387,0.381,0.646
		c0,0.121-0.026,0.217-0.078,0.291c-0.052,0.074-0.116,0.11-0.193,0.11c-0.155,0-0.362-0.179-0.62-0.536
		c-0.258-0.357-0.387-0.574-0.387-0.652S150.648,5.158,150.752,5.158z M154.148,6.166c-0.069,0.051-0.125,0.077-0.168,0.077
		s-0.064-0.026-0.064-0.077c0-0.052,0.042-0.134,0.129-0.246c0.267-0.318,0.439-0.56,0.517-0.723
		c0.078-0.163,0.109-0.292,0.097-0.388c-0.013-0.095-0.02-0.159-0.02-0.193c0-0.12,0.071-0.181,0.213-0.181s0.388,0.067,0.736,0.2
		c0.349,0.133,0.523,0.256,0.523,0.368c0,0.061-0.058,0.11-0.174,0.149c-0.116,0.038-0.265,0.114-0.446,0.226L154.148,6.166z"/>
	<path display="inline" fill="lime" d="M162.155,4.577c0.551-0.172,0.906-0.258,1.066-0.258c0.159,0,0.277,0.026,0.355,0.077
		c0.078,0.052,0.116,0.108,0.116,0.168c0,0.189-0.521,0.43-1.562,0.723c-0.026,0.508-0.039,1.007-0.039,1.498
		c0.637,0,1.031,0.09,1.182,0.271c0.15,0.181,0.226,0.34,0.226,0.478c0,0.138-0.026,0.237-0.077,0.297
		c-0.052,0.061-0.117,0.09-0.194,0.09c-0.198,0-0.582-0.31-1.149-0.929c0,0.852,0.008,1.564,0.026,2.137
		c0.017,0.573,0.026,0.971,0.026,1.195c0,1.085-0.121,1.627-0.362,1.627c-0.104,0-0.224-0.127-0.361-0.381
		c-0.138-0.254-0.207-0.495-0.207-0.723s0.056-0.499,0.167-0.814c0.112-0.313,0.198-1.504,0.259-3.57
		c-0.241,0.689-0.551,1.293-0.93,1.814c-0.379,0.521-0.76,0.919-1.143,1.194c-0.383,0.276-0.635,0.414-0.755,0.414
		c-0.043,0-0.064-0.021-0.064-0.064c0-0.043,0.064-0.129,0.193-0.259c0.414-0.404,0.872-1,1.375-1.788
		c0.504-0.788,0.893-1.552,1.169-2.292c-0.655,0.172-1.158,0.258-1.511,0.258s-0.596-0.041-0.729-0.123
		c-0.134-0.082-0.2-0.157-0.2-0.226c0-0.069,0.088-0.114,0.265-0.135c0.176-0.021,0.546-0.093,1.11-0.213
		c0.563-0.121,0.983-0.22,1.259-0.297c0.008-0.818-0.015-1.5-0.071-2.047c-0.056-0.546-0.133-0.891-0.232-1.033
		c-0.099-0.142-0.148-0.256-0.148-0.342c0-0.086,0.056-0.129,0.168-0.129c0.111,0,0.327,0.08,0.646,0.239
		c0.318,0.159,0.478,0.303,0.478,0.432c0,0.052-0.018,0.125-0.052,0.22c-0.086,0.258-0.148,0.571-0.187,0.937
		C162.226,3.387,162.189,3.905,162.155,4.577z M164.958,4.396c0.292-0.034,0.575-0.116,0.846-0.245s0.46-0.265,0.568-0.407
		c0.107-0.142,0.228-0.213,0.361-0.213c0.133,0,0.344,0.084,0.633,0.252c0.288,0.168,0.432,0.301,0.432,0.4
		s-0.097,0.245-0.291,0.439c-0.194,0.194-0.345,0.587-0.452,1.182c-0.108,0.594-0.162,1.218-0.162,1.873
		c0,0.655,0.105,1.162,0.316,1.524c0.211,0.361,0.635,0.542,1.272,0.542c0.457,0,0.757-0.104,0.904-0.31
		c0.146-0.207,0.254-0.616,0.323-1.227c0.025-0.259,0.066-0.388,0.123-0.388c0.056,0,0.095,0.103,0.116,0.31
		s0.084,0.497,0.187,0.872c0.104,0.375,0.179,0.598,0.226,0.671c0.047,0.074,0.071,0.14,0.071,0.2c0,0.155-0.179,0.319-0.536,0.491
		c-0.357,0.172-0.772,0.259-1.246,0.259c-0.801,0-1.386-0.226-1.756-0.679c-0.37-0.452-0.555-1.155-0.555-2.111
		c0-0.25,0.028-0.768,0.084-1.556c0.056-0.788,0.095-1.257,0.116-1.408c0.021-0.15,0.032-0.275,0.032-0.375
		c0-0.099-0.032-0.148-0.097-0.148s-0.218,0.043-0.459,0.129c-0.241,0.085-0.508,0.176-0.8,0.271
		c0.008,0.817-0.037,1.655-0.136,2.512c-0.099,0.857-0.273,1.537-0.523,2.041c-0.25,0.503-0.566,0.884-0.949,1.143
		c-0.383,0.259-0.652,0.388-0.807,0.388c-0.061,0-0.09-0.026-0.09-0.078c0-0.051,0.069-0.128,0.207-0.232
		c0.508-0.379,0.897-0.897,1.168-1.556c0.271-0.659,0.407-1.647,0.407-2.964c0-0.723-0.066-1.162-0.2-1.316
		c-0.133-0.155-0.2-0.269-0.2-0.343c0-0.073,0.062-0.109,0.187-0.109C164.404,4.229,164.63,4.284,164.958,4.396z"/>
	<path display="inline" fill="lime" d="M174.798,6.617c0.318-0.017,0.622,0.031,0.911,0.142c0.288,0.112,0.433,0.306,0.433,0.581
		c0,0.276-0.086,0.414-0.259,0.414c-0.06,0-0.118-0.017-0.174-0.051c-0.056-0.035-0.174-0.141-0.355-0.317
		c-0.181-0.176-0.366-0.372-0.556-0.587c-0.017,0.646-0.026,1.244-0.026,1.795l0.013,1.498c0,0.56-0.036,0.983-0.109,1.272
		c-0.073,0.289-0.16,0.433-0.258,0.433s-0.211-0.112-0.336-0.336s-0.187-0.491-0.187-0.801s0.045-0.581,0.136-0.813
		c0.09-0.232,0.15-0.562,0.181-0.988c0.03-0.426,0.062-1.19,0.097-2.292c-0.292,0.646-0.637,1.216-1.033,1.711
		c-0.396,0.495-0.79,0.887-1.182,1.175c-0.392,0.289-0.652,0.433-0.781,0.433c-0.052,0-0.078-0.023-0.078-0.071
		s0.043-0.114,0.129-0.2c0.671-0.654,1.203-1.283,1.595-1.886s0.756-1.305,1.092-2.105c-0.75,0.198-1.217,0.297-1.402,0.297
		s-0.392-0.045-0.62-0.135c-0.228-0.091-0.342-0.166-0.342-0.226s0.116-0.104,0.349-0.129c0.715-0.077,1.481-0.228,2.299-0.452
		c0.025-1.843-0.047-2.862-0.219-3.061c-0.172-0.198-0.259-0.342-0.259-0.433c0-0.091,0.065-0.135,0.194-0.135
		c0.128,0,0.366,0.075,0.709,0.226c0.344,0.151,0.517,0.308,0.517,0.472c0,0.069-0.021,0.16-0.064,0.271
		c-0.189,0.56-0.31,1.395-0.361,2.505c0.361-0.086,0.667-0.129,0.917-0.129c0.112,0,0.226,0.037,0.342,0.11
		c0.116,0.074,0.174,0.145,0.174,0.213s-0.075,0.134-0.226,0.193c-0.151,0.061-0.562,0.146-1.233,0.259
		C174.824,5.778,174.815,6.161,174.798,6.617z M177.716,4.616c0.431-0.008,0.938-0.071,1.524-0.188
		c0.585-0.116,0.99-0.215,1.214-0.297s0.388-0.123,0.491-0.123c0.104,0,0.323,0.093,0.659,0.277
		c0.335,0.186,0.503,0.332,0.503,0.439s-0.041,0.22-0.123,0.336c-0.082,0.116-0.14,0.22-0.174,0.31
		c-0.035,0.09-0.062,0.243-0.084,0.458c-0.021,0.215-0.032,0.585-0.032,1.111l-0.026,1.691c0,0.568-0.062,1.161-0.187,1.776
		c-0.125,0.616-0.323,1.091-0.594,1.427c-0.271,0.335-0.493,0.503-0.666,0.503c-0.112,0-0.232-0.095-0.361-0.284
		c-0.276-0.405-0.556-0.736-0.84-0.995c-0.103-0.094-0.155-0.163-0.155-0.207c0-0.043,0.033-0.064,0.097-0.064
		s0.191,0.02,0.381,0.058c0.19,0.038,0.39,0.058,0.601,0.058c0.211,0,0.383-0.116,0.517-0.349c0.133-0.232,0.256-0.691,0.368-1.375
		c0.112-0.684,0.168-1.483,0.168-2.395c0-0.414-0.013-0.799-0.039-1.156s-0.058-0.579-0.097-0.665
		c-0.039-0.086-0.101-0.146-0.187-0.181c-0.086-0.034-0.207-0.051-0.362-0.051c-0.396,0-0.848,0.069-1.355,0.207
		c-0.379,0.086-0.685,0.129-0.917,0.129c-0.233,0-0.418-0.034-0.555-0.104c-0.328,0.457-0.642,0.812-0.943,1.065
		c-0.302,0.254-0.504,0.381-0.607,0.381c-0.043,0-0.064-0.028-0.064-0.084c0-0.056,0.056-0.148,0.167-0.277
		c0.482-0.525,0.896-1.182,1.24-1.97c0.344-0.788,0.516-1.396,0.516-1.827c0-0.078-0.019-0.166-0.058-0.265
		c-0.039-0.099-0.058-0.194-0.058-0.284c0-0.09,0.066-0.136,0.2-0.136c0.133,0,0.362,0.058,0.685,0.175
		c0.323,0.116,0.484,0.256,0.484,0.419c0,0.104-0.056,0.22-0.168,0.349l-0.723,1.369C178.035,4.095,177.889,4.34,177.716,4.616z
		 M178.827,8.206c-0.069-0.189-0.125-0.338-0.168-0.446c-0.043-0.108-0.065-0.198-0.065-0.271c0-0.073,0.031-0.11,0.091-0.11
		c0.146,0,0.385,0.164,0.716,0.491c0.332,0.327,0.498,0.628,0.498,0.904c0,0.129-0.035,0.261-0.104,0.394s-0.147,0.2-0.232,0.2
		c-0.086,0-0.168-0.041-0.246-0.123s-0.198-0.329-0.361-0.742c-0.87,0.207-1.619,0.495-2.248,0.865
		c-0.095,0.052-0.193,0.077-0.297,0.077s-0.179-0.064-0.226-0.193S176.114,9,176.114,8.884c0-0.116,0.021-0.195,0.064-0.239
		c0.043-0.043,0.136-0.099,0.278-0.168s0.263-0.159,0.361-0.271c0.099-0.112,0.198-0.287,0.297-0.523
		c0.099-0.237,0.179-0.495,0.239-0.775c0.061-0.279,0.079-0.481,0.058-0.607c-0.021-0.125-0.032-0.226-0.032-0.304
		c0-0.163,0.053-0.245,0.161-0.245c0.107,0,0.282,0.058,0.523,0.174c0.241,0.116,0.361,0.218,0.361,0.304s-0.03,0.172-0.09,0.258
		c-0.061,0.086-0.133,0.203-0.22,0.349l-1.11,1.718L178.827,8.206z"/>
	<path display="inline" fill="lime" d="M187.686,6.476h3.1V3.35h0.555v3.125h3.125V7.03h-3.125v3.086h-0.555V7.031h-3.1V6.476z"
		/>
	<path display="inline" fill="lime" d="M198.767,7.418c-0.25,0.129-0.504,0.193-0.762,0.193c-0.276,0-0.536-0.062-0.781-0.187
		c-0.246-0.125-0.463-0.297-0.652-0.517c-0.189-0.219-0.34-0.484-0.452-0.794c-0.112-0.31-0.168-0.646-0.168-1.007
		c0-0.353,0.062-0.685,0.188-0.995c0.125-0.31,0.294-0.581,0.51-0.813c0.215-0.232,0.469-0.415,0.762-0.548
		c0.292-0.134,0.603-0.2,0.93-0.2c0.379,0,0.723,0.079,1.033,0.238c0.31,0.16,0.572,0.381,0.788,0.666
		c0.215,0.284,0.381,0.622,0.497,1.014c0.116,0.392,0.174,0.82,0.174,1.285c0,0.654-0.107,1.278-0.323,1.872
		c-0.215,0.594-0.515,1.125-0.897,1.595c-0.383,0.469-0.842,0.861-1.375,1.175c-0.534,0.314-1.119,0.514-1.756,0.6l-0.051-0.284
		c0.551-0.112,1.043-0.314,1.479-0.607c0.435-0.293,0.8-0.661,1.098-1.104c0.297-0.443,0.523-0.949,0.678-1.517
		c0.155-0.569,0.232-1.184,0.232-1.847c0-0.904-0.151-1.597-0.452-2.079c-0.302-0.482-0.71-0.724-1.227-0.724
		c-0.207,0-0.392,0.061-0.555,0.181c-0.164,0.121-0.304,0.286-0.419,0.498c-0.116,0.211-0.207,0.456-0.271,0.736
		c-0.064,0.28-0.097,0.58-0.097,0.897c0,0.655,0.121,1.162,0.362,1.524c0.241,0.362,0.559,0.542,0.955,0.542
		c0.121,0,0.267-0.021,0.439-0.064L198.767,7.418z"/>
	<path display="inline" fill="lime" d="M206.398,2.511l0.104,0.246c-0.534,0.198-1.019,0.476-1.453,0.833
		c-0.435,0.357-0.807,0.766-1.117,1.227c-0.31,0.46-0.548,0.962-0.716,1.504s-0.252,1.094-0.252,1.653
		c0,0.353,0.039,0.693,0.116,1.02c0.078,0.327,0.188,0.616,0.33,0.865c0.142,0.25,0.312,0.448,0.51,0.594
		c0.197,0.147,0.413,0.22,0.645,0.22c0.964,0,1.447-0.766,1.447-2.299c0-0.646-0.123-1.149-0.369-1.511
		c-0.245-0.362-0.562-0.542-0.949-0.542c-0.155,0-0.297,0.03-0.426,0.09l-0.142-0.207c0.284-0.121,0.563-0.181,0.839-0.181
		c0.284,0,0.547,0.056,0.788,0.168c0.241,0.112,0.45,0.273,0.626,0.484c0.177,0.21,0.314,0.463,0.414,0.755
		c0.099,0.293,0.148,0.62,0.148,0.982c0,0.361-0.058,0.697-0.174,1.007c-0.117,0.31-0.28,0.579-0.491,0.807
		s-0.465,0.406-0.762,0.536c-0.297,0.129-0.626,0.194-0.988,0.194c-0.362,0-0.693-0.076-0.995-0.226
		c-0.301-0.151-0.56-0.364-0.774-0.64c-0.215-0.275-0.383-0.611-0.504-1.007c-0.12-0.396-0.181-0.835-0.181-1.317
		c0-0.594,0.104-1.169,0.31-1.724c0.207-0.555,0.499-1.065,0.878-1.53c0.379-0.465,0.833-0.869,1.363-1.214
		C205.152,2.954,205.744,2.691,206.398,2.511z"/>
	<path display="inline" fill="lime" d="M212.998,10.789c-0.62-0.026-1.494-0.039-2.622-0.039s-1.993,0.013-2.596,0.039
		c0.095-0.189,0.189-0.359,0.284-0.51c0.095-0.15,0.213-0.312,0.355-0.484c0.143-0.172,0.32-0.369,0.536-0.587
		c0.215-0.22,0.491-0.498,0.826-0.833l0.271-0.284c0.594-0.594,1.052-1.158,1.375-1.692c0.323-0.533,0.484-1.042,0.484-1.523
		c0-0.525-0.148-0.934-0.445-1.227c-0.297-0.293-0.666-0.439-1.104-0.439c-0.439,0-0.833,0.149-1.182,0.446
		c-0.348,0.297-0.591,0.717-0.729,1.259l-0.297-0.051c0.146-0.723,0.433-1.29,0.859-1.698c0.426-0.409,0.962-0.613,1.607-0.613
		c0.31,0,0.601,0.056,0.872,0.167c0.271,0.112,0.51,0.265,0.716,0.458c0.207,0.193,0.37,0.419,0.491,0.678
		c0.12,0.258,0.181,0.534,0.181,0.827c0,0.267-0.039,0.514-0.116,0.742c-0.077,0.228-0.194,0.458-0.349,0.691
		c-0.154,0.232-0.35,0.476-0.587,0.729c-0.237,0.254-0.514,0.536-0.833,0.846l-0.581,0.555c-0.422,0.387-0.968,0.994-1.64,1.821
		h3.035c0.172,0,0.314-0.013,0.426-0.039c0.112-0.026,0.207-0.073,0.284-0.142c0.078-0.069,0.146-0.164,0.207-0.284
		c0.061-0.121,0.125-0.275,0.194-0.465h0.271L212.998,10.789z"/>
	<path display="inline" fill="lime" d="M216.937,7.418c-0.25,0.129-0.504,0.193-0.762,0.193c-0.276,0-0.536-0.062-0.781-0.187
		c-0.246-0.125-0.463-0.297-0.652-0.517c-0.189-0.219-0.34-0.484-0.452-0.794c-0.112-0.31-0.168-0.646-0.168-1.007
		c0-0.353,0.063-0.685,0.188-0.995s0.294-0.581,0.51-0.813c0.215-0.232,0.469-0.415,0.762-0.548c0.292-0.134,0.603-0.2,0.93-0.2
		c0.379,0,0.723,0.079,1.033,0.238c0.31,0.16,0.572,0.381,0.788,0.666c0.215,0.284,0.381,0.622,0.497,1.014
		c0.116,0.392,0.174,0.82,0.174,1.285c0,0.654-0.108,1.278-0.323,1.872c-0.215,0.594-0.515,1.125-0.897,1.595
		c-0.383,0.469-0.842,0.861-1.375,1.175c-0.534,0.314-1.119,0.514-1.756,0.6l-0.051-0.284c0.551-0.112,1.043-0.314,1.479-0.607
		c0.435-0.293,0.8-0.661,1.098-1.104c0.297-0.443,0.523-0.949,0.678-1.517c0.155-0.569,0.232-1.184,0.232-1.847
		c0-0.904-0.151-1.597-0.452-2.079c-0.302-0.482-0.71-0.724-1.227-0.724c-0.207,0-0.392,0.061-0.555,0.181
		c-0.164,0.121-0.304,0.286-0.42,0.498c-0.116,0.211-0.206,0.456-0.271,0.736c-0.064,0.28-0.097,0.58-0.097,0.897
		c0,0.655,0.121,1.162,0.362,1.524c0.24,0.362,0.559,0.542,0.955,0.542c0.12,0,0.267-0.021,0.439-0.064L216.937,7.418z"/>
	<path display="inline" fill="lime" d="M230.044,5.274h0.852L230.393,8.8c-0.104,0.784,0.021,1.175,0.375,1.175
		c0.171,0,0.342-0.051,0.509-0.155c0.168-0.104,0.319-0.263,0.453-0.478c0.133-0.215,0.241-0.491,0.323-0.826
		c0.082-0.336,0.123-0.736,0.123-1.202c0-0.594-0.084-1.104-0.252-1.53c-0.167-0.426-0.402-0.775-0.704-1.046
		c-0.302-0.271-0.659-0.471-1.072-0.6c-0.413-0.129-0.866-0.194-1.356-0.194c-0.551,0-1.065,0.11-1.543,0.33
		c-0.478,0.219-0.891,0.527-1.24,0.923c-0.349,0.396-0.625,0.87-0.826,1.42c-0.203,0.551-0.304,1.163-0.304,1.834
		c0,1.317,0.327,2.321,0.981,3.009c0.654,0.689,1.571,1.033,2.75,1.033c0.224,0,0.471-0.03,0.743-0.09
		c0.271-0.061,0.514-0.146,0.729-0.258l0.375,1.123c-0.276,0.146-0.577,0.256-0.904,0.329c-0.328,0.073-0.698,0.11-1.111,0.11
		c-0.68,0-1.315-0.103-1.905-0.31c-0.589-0.207-1.104-0.523-1.543-0.949c-0.439-0.426-0.786-0.969-1.04-1.627
		c-0.254-0.659-0.381-1.44-0.381-2.344s0.144-1.713,0.433-2.428c0.288-0.715,0.673-1.317,1.156-1.808
		c0.482-0.491,1.037-0.865,1.666-1.124c0.628-0.258,1.287-0.387,1.976-0.387c0.654,0,1.268,0.097,1.84,0.291
		c0.573,0.193,1.067,0.482,1.485,0.865c0.418,0.384,0.747,0.861,0.988,1.434c0.241,0.573,0.362,1.238,0.362,1.995
		c0,0.569-0.084,1.096-0.252,1.583c-0.167,0.486-0.394,0.904-0.678,1.252c-0.284,0.348-0.618,0.623-1,0.82
		c-0.384,0.198-0.791,0.297-1.221,0.297c-0.353,0-0.652-0.09-0.897-0.271c-0.246-0.181-0.359-0.495-0.342-0.943h-0.039
		c-0.198,0.328-0.438,0.612-0.717,0.853c-0.28,0.241-0.623,0.361-1.027,0.361c-0.37,0-0.684-0.163-0.943-0.49
		c-0.258-0.327-0.387-0.783-0.387-1.369c0-0.577,0.071-1.12,0.213-1.627c0.142-0.508,0.333-0.953,0.575-1.337
		c0.241-0.382,0.521-0.686,0.84-0.91c0.318-0.224,0.658-0.336,1.02-0.336c0.241,0,0.448,0.043,0.62,0.129s0.331,0.202,0.478,0.349
		L230.044,5.274z M229.359,6.781c-0.155-0.178-0.357-0.267-0.606-0.267c-0.198,0-0.379,0.07-0.542,0.21
		c-0.164,0.14-0.306,0.327-0.426,0.56c-0.121,0.233-0.215,0.5-0.284,0.802c-0.069,0.302-0.104,0.613-0.104,0.935
		c0,0.297,0.049,0.526,0.148,0.687c0.099,0.162,0.252,0.242,0.458,0.242c0.189,0,0.381-0.104,0.575-0.312
		c0.194-0.208,0.355-0.439,0.484-0.693L229.359,6.781z"/>
	<path display="inline" fill="lime" d="M236.501,6.927L234.5,2.485h1.962l1.046,2.583l0.245,0.981l0.232-0.981l1.098-2.583h1.756
		l-2.065,4.352l2.17,4.688h-1.898l-1.214-2.777l-0.271-1.007l-0.258,1.007l-1.214,2.777h-1.795L236.501,6.927z"/>
	<path display="inline" fill="lime" d="M241.757,2.485h1.628v9.04h-1.628V2.485z"/>
	<path display="inline" fill="lime" d="M244.48,3.208c0-0.25,0.076-0.452,0.228-0.607c0.149-0.155,0.338-0.232,0.562-0.232
		c0.275,0,0.494,0.097,0.652,0.291c0.159,0.193,0.238,0.462,0.238,0.807c0,0.335-0.047,0.619-0.143,0.852
		c-0.095,0.232-0.209,0.428-0.343,0.587c-0.133,0.159-0.272,0.287-0.42,0.381c-0.146,0.094-0.271,0.163-0.374,0.206l-0.388-0.646
		c0.146-0.069,0.274-0.172,0.388-0.31c0.111-0.138,0.178-0.305,0.193-0.503c-0.146-0.008-0.282-0.08-0.406-0.213
		C244.544,3.688,244.48,3.484,244.48,3.208z"/>
	<path display="inline" fill="lime" d="M249.389,9.458h-2.13l-0.53,2.066h-1.613l2.621-9.104h1.279l2.633,9.104h-1.703
		L249.389,9.458z M247.605,8.141h1.5l-0.519-2.105l-0.206-1.42h-0.052l-0.22,1.434L247.605,8.141z"/>
	<path display="inline" fill="lime" d="M254.193,7.083L253.6,5.494h-0.063l0.206,1.563v4.468h-1.536V2.42h1.252l2.597,4.546
		l0.555,1.562h0.078l-0.207-1.536V2.485h1.537v9.104h-1.252L254.193,7.083z"/>
</g>
<g>
	<path fill="lime" d="M7.417,61.875h7.984v-7.984h2.311v7.984h7.984v2.311h-7.984v7.985h-2.311v-7.985H7.417V61.875z"/>
	<path fill="lime" d="M30.877,54.907c0-0.98,0.181-1.867,0.543-2.662c0.362-0.793,0.858-1.471,1.488-2.031
		c0.631-0.56,1.377-0.999,2.241-1.313c0.863-0.315,1.798-0.472,2.801-0.472c1.004,0,1.938,0.157,2.801,0.472
		c0.864,0.315,1.611,0.753,2.241,1.313c0.63,0.56,1.126,1.237,1.488,2.031s0.543,1.681,0.543,2.662c0,0.583-0.094,1.167-0.28,1.75
		c-0.187,0.584-0.455,1.122-0.806,1.611c-0.35,0.491-0.776,0.922-1.278,1.296c-0.502,0.373-1.068,0.642-1.698,0.805v0.07
		c0.747,0.165,1.423,0.438,2.031,0.823c0.607,0.385,1.121,0.858,1.541,1.418c0.42,0.562,0.747,1.197,0.98,1.908
		c0.233,0.713,0.35,1.453,0.35,2.225c0,1.121-0.205,2.129-0.613,3.029c-0.409,0.897-0.969,1.662-1.681,2.293
		s-1.552,1.109-2.521,1.436c-0.969,0.326-2.002,0.49-3.1,0.49c-1.098,0-2.13-0.164-3.099-0.49c-0.969-0.325-1.81-0.805-2.521-1.436
		c-0.713-0.631-1.273-1.396-1.681-2.293c-0.408-0.9-0.613-1.908-0.613-3.029c0-0.771,0.117-1.512,0.351-2.225
		c0.233-0.711,0.56-1.348,0.98-1.908c0.42-0.56,0.934-1.033,1.541-1.418c0.607-0.385,1.284-0.658,2.031-0.823v-0.07
		c-0.63-0.163-1.197-0.432-1.698-0.805c-0.502-0.374-0.928-0.805-1.278-1.296c-0.35-0.49-0.618-1.027-0.805-1.611
		C30.97,56.074,30.877,55.49,30.877,54.907z M32.979,66.604c0,0.723,0.127,1.39,0.385,1.994c0.257,0.607,0.613,1.127,1.068,1.561
		c0.455,0.431,0.98,0.769,1.576,1.015c0.595,0.244,1.243,0.368,1.943,0.368c0.701,0,1.349-0.124,1.944-0.368
		c0.595-0.246,1.121-0.584,1.576-1.015c0.456-0.434,0.811-0.952,1.068-1.561c0.257-0.604,0.385-1.271,0.385-1.994
		c0-0.724-0.128-1.39-0.385-1.996c-0.257-0.607-0.612-1.127-1.068-1.56c-0.455-0.433-0.981-0.771-1.576-1.016
		s-1.243-0.367-1.944-0.367c-0.7,0-1.348,0.122-1.943,0.367c-0.596,0.245-1.121,0.583-1.576,1.016s-0.811,0.951-1.068,1.56
		C33.106,65.214,32.979,65.88,32.979,66.604z M33.818,55.047c0,1.19,0.379,2.171,1.138,2.941c0.758,0.771,1.756,1.155,2.994,1.155
		c1.238,0,2.235-0.385,2.994-1.155c0.758-0.771,1.138-1.751,1.138-2.941c0-1.191-0.379-2.171-1.138-2.942
		c-0.759-0.77-1.757-1.155-2.994-1.155c-1.237,0-2.235,0.385-2.994,1.155C34.198,52.875,33.818,53.856,33.818,55.047z"/>
	<path fill="lime" d="M54.829,59.178l0.07,0.07c0.467-0.256,1.01-0.443,1.628-0.56c0.618-0.117,1.185-0.176,1.699-0.176
		c1.073,0,2.071,0.187,2.993,0.56c0.922,0.375,1.716,0.906,2.382,1.593c0.665,0.688,1.184,1.513,1.558,2.469
		c0.373,0.957,0.56,2.009,0.56,3.152c0,1.213-0.21,2.3-0.63,3.256c-0.42,0.959-1.004,1.769-1.75,2.435
		c-0.748,0.664-1.628,1.18-2.644,1.541c-1.016,0.36-2.107,0.541-3.274,0.541c-1.168,0-2.259-0.181-3.274-0.541
		c-1.016-0.361-1.897-0.877-2.644-1.541c-0.747-0.666-1.331-1.476-1.75-2.435c-0.42-0.956-0.63-2.043-0.63-3.256
		c0-1.425,0.222-2.673,0.665-3.747c0.443-1.073,1.004-2.147,1.681-3.221l6.583-10.471h3.432L54.829,59.178z M57.42,61.034
		c-0.748,0-1.448,0.123-2.101,0.366c-0.654,0.246-1.22,0.598-1.698,1.053c-0.479,0.455-0.858,1.01-1.138,1.662
		c-0.28,0.654-0.42,1.378-0.42,2.172c0,0.816,0.14,1.547,0.42,2.188c0.28,0.644,0.66,1.189,1.138,1.646
		c0.478,0.456,1.044,0.805,1.698,1.051c0.653,0.244,1.354,0.368,2.101,0.368s1.447-0.124,2.101-0.368
		c0.654-0.246,1.22-0.595,1.698-1.051c0.478-0.456,0.858-1.003,1.138-1.646c0.28-0.642,0.42-1.371,0.42-2.188
		c0-0.794-0.14-1.518-0.42-2.172c-0.28-0.652-0.66-1.207-1.138-1.662c-0.478-0.455-1.044-0.807-1.698-1.053
		C58.867,61.157,58.167,61.034,57.42,61.034z"/>
	<path fill="lime" d="M68.905,70.277l9.349-9.104c0.583-0.561,1.097-1.081,1.541-1.559c0.444-0.478,0.811-0.946,1.103-1.401
		s0.508-0.928,0.648-1.417c0.14-0.491,0.21-1.039,0.21-1.646c0-0.654-0.117-1.237-0.351-1.751c-0.233-0.514-0.555-0.951-0.963-1.313
		c-0.409-0.362-0.887-0.641-1.436-0.84c-0.549-0.199-1.138-0.297-1.768-0.297c-1.261,0-2.3,0.361-3.117,1.084
		c-0.818,0.724-1.343,1.682-1.576,2.872l-3.187-0.28c0.163-1.004,0.473-1.896,0.928-2.679c0.455-0.782,1.027-1.429,1.716-1.943
		c0.688-0.513,1.465-0.905,2.329-1.173c0.864-0.268,1.797-0.403,2.802-0.403c1.026,0,1.996,0.146,2.906,0.438
		s1.709,0.718,2.398,1.278c0.688,0.56,1.237,1.261,1.646,2.101c0.408,0.84,0.613,1.81,0.613,2.907c0,0.98-0.135,1.868-0.402,2.661
		c-0.269,0.793-0.631,1.522-1.086,2.188c-0.455,0.665-0.969,1.296-1.541,1.892c-0.572,0.596-1.173,1.186-1.804,1.769l-7.633,7.18
		v0.069h12.641v2.73H68.905V70.277z"/>
	<path fill="lime" d="M98.949,63.311l-0.07-0.069c-0.467,0.257-1.01,0.444-1.628,0.56c-0.619,0.118-1.185,0.176-1.698,0.176
		c-1.074,0-2.073-0.186-2.995-0.561c-0.922-0.373-1.715-0.904-2.381-1.593c-0.665-0.688-1.185-1.506-1.559-2.451
		c-0.374-0.946-0.56-2.002-0.56-3.17c0-1.213,0.21-2.298,0.631-3.256c0.419-0.958,1.003-1.769,1.75-2.434
		c0.748-0.665,1.628-1.178,2.645-1.541c1.015-0.361,2.106-0.542,3.273-0.542s2.259,0.181,3.274,0.542
		c1.015,0.363,1.896,0.875,2.644,1.541c0.747,0.666,1.331,1.477,1.751,2.434c0.42,0.958,0.63,2.043,0.63,3.256
		c0,0.724-0.058,1.39-0.175,1.996c-0.117,0.608-0.28,1.191-0.49,1.751c-0.21,0.562-0.461,1.104-0.753,1.629
		s-0.602,1.057-0.928,1.594l-6.582,10.469h-3.432L98.949,63.311z M96.357,61.454c0.747,0,1.447-0.123,2.101-0.367
		c0.654-0.245,1.22-0.595,1.698-1.05c0.478-0.455,0.858-1.003,1.138-1.646c0.28-0.642,0.42-1.371,0.42-2.189
		c0-0.793-0.14-1.517-0.42-2.17c-0.28-0.654-0.66-1.209-1.138-1.664c-0.479-0.455-1.044-0.805-1.698-1.051
		c-0.654-0.245-1.354-0.367-2.101-0.367s-1.448,0.122-2.101,0.367c-0.654,0.246-1.22,0.596-1.699,1.051s-0.858,1.01-1.138,1.664
		C91.14,54.685,91,55.408,91,56.202c0,0.818,0.14,1.547,0.419,2.189c0.28,0.643,0.66,1.191,1.138,1.646s1.045,0.805,1.699,1.05
		C94.91,61.331,95.61,61.454,96.357,61.454z"/>
	<path fill="lime" d="M138.62,49.867h14.653v28.316c0,2.809-0.438,5.459-1.313,7.953c-0.875,2.495-2.248,4.678-4.117,6.543
		c-1.87,1.869-3.832,3.182-5.884,3.938c-2.853,1.06-6.279,1.587-10.277,1.587c-2.313,0-4.836-0.161-7.57-0.485
		c-2.735-0.322-5.021-0.967-6.857-1.927c-1.838-0.961-3.518-2.327-5.042-4.099s-2.567-3.598-3.129-5.477
		c-0.907-3.021-1.361-5.701-1.361-8.033V49.867h14.654v28.99c0,2.593,0.718,4.617,2.156,6.072c1.437,1.459,3.431,2.188,5.981,2.188
		c2.528,0,4.511-0.717,5.949-2.152c1.437-1.438,2.156-3.473,2.156-6.105L138.62,49.867L138.62,49.867z"/>
	<path fill="lime" d="M162.264,97.396V49.867h24.477c4.539,0,8.008,0.389,10.407,1.167c2.399,0.778,4.333,2.221,5.803,4.328
		c1.47,2.107,2.204,4.674,2.204,7.701c0,2.636-0.562,4.91-1.686,6.822c-1.124,1.913-2.671,3.465-4.639,4.653
		c-1.254,0.757-2.973,1.383-5.158,1.879c1.749,0.585,3.024,1.169,3.823,1.753c0.541,0.391,1.323,1.225,2.349,2.5
		c1.026,1.275,1.712,2.26,2.057,2.953l7.112,13.771h-16.594l-7.85-14.524c-0.995-1.881-1.881-3.103-2.659-3.663
		c-1.059-0.736-2.259-1.104-3.599-1.104h-1.297v19.291h-14.75V97.396z M177.015,69.125h6.192c0.67,0,1.967-0.217,3.891-0.648
		c0.973-0.193,1.767-0.689,2.383-1.49c0.616-0.799,0.923-1.719,0.923-2.758c0-1.533-0.486-2.711-1.458-3.533
		c-0.973-0.82-2.799-1.231-5.479-1.231h-6.452V69.125L177.015,69.125z"/>
	<path fill="lime" d="M213.415,49.867h27.492c4.581,0,8.1,1.135,10.553,3.404c2.452,2.27,3.681,5.08,3.681,8.429
		c0,2.811-0.875,5.22-2.627,7.229c-1.168,1.34-2.873,2.399-5.121,3.178c3.414,0.822,5.926,2.231,7.537,4.23
		c1.609,1.998,2.414,4.512,2.414,7.537c0,2.463-0.572,4.68-1.718,6.646s-2.713,3.521-4.701,4.668
		c-1.231,0.713-3.091,1.23-5.575,1.556c-3.308,0.433-5.502,0.649-6.582,0.649h-25.353V49.867z M228.231,68.509h6.387
		c2.29,0,3.884-0.396,4.78-1.184s1.347-1.929,1.347-3.421c0-1.383-0.449-2.465-1.347-3.241c-0.896-0.778-2.458-1.167-4.685-1.167
		h-6.483V68.509z M228.231,87.184h7.489c2.528,0,4.311-0.449,5.35-1.347c1.037-0.897,1.555-2.103,1.555-3.614
		c0-1.404-0.514-2.533-1.539-3.39c-1.027-0.853-2.826-1.278-5.398-1.278h-7.457V87.184z"/>
	<path fill="lime" d="M292.943,89.549h-16.672l-2.316,7.848H258.96l17.863-47.528h16.02l17.858,47.528h-15.378L292.943,89.549z
		 M289.898,79.271l-5.246-17.086l-5.191,17.086H289.898z"/>
	<path fill="lime" d="M315.098,49.867h13.713l17.896,26.295V49.867h13.843v47.527h-13.843l-17.799-26.098v26.098h-13.811V49.867
		L315.098,49.867z"/>
	<path fill="lime" d="M370.805,90.114c1.289,0,2.389,0.454,3.293,1.354c0.902,0.906,1.355,2.004,1.355,3.295
		c0,1.293-0.479,2.389-1.434,3.293c-0.957,0.903-2.028,1.355-3.217,1.355c-1.188,0-2.26-0.452-3.216-1.355
		c-0.957-0.904-1.435-2-1.435-3.293c0-1.291,0.451-2.389,1.356-3.295C368.414,90.568,369.512,90.114,370.805,90.114z"/>
	<path fill="lime" d="M385.123,40.37h6.044v58.578h-6.044V40.37z"/>
	<path fill="lime" d="M400.17,48.506c0-1.188,0.426-2.22,1.278-3.1c0.853-0.877,1.898-1.317,3.138-1.317
		c1.24,0,2.286,0.44,3.139,1.317c0.854,0.879,1.279,1.912,1.279,3.1c0,1.292-0.414,2.351-1.24,3.177
		c-0.826,0.827-1.887,1.24-3.178,1.24s-2.351-0.413-3.176-1.24C400.583,50.857,400.17,49.798,400.17,48.506z M401.564,62.688h6.044
		v36.262h-6.044V62.688z"/>
	<path fill="lime" d="M421.252,67.801h-7.902v-5.113h7.902V54.55c0-2.221,0.206-4.249,0.62-6.083
		c0.413-1.833,1.124-3.421,2.131-4.765c1.008-1.342,2.337-2.389,3.99-3.138c1.653-0.748,3.692-1.124,6.122-1.124
		c0.773,0,1.601,0.078,2.479,0.232c0.878,0.155,1.602,0.387,2.171,0.697l-0.853,5.424c-1.447-0.515-2.816-0.774-4.107-0.774
		c-1.55,0-2.764,0.271-3.642,0.813c-0.88,0.542-1.537,1.292-1.976,2.247c-0.44,0.956-0.698,2.105-0.775,3.448
		c-0.077,1.343-0.116,2.789-0.116,4.339v6.819h8.834v5.113h-8.834v31.146h-6.044V67.801z"/>
	<path fill="lime" d="M472.964,92.361c-2.169,2.791-4.546,4.74-7.128,5.852c-2.583,1.11-5.579,1.665-8.988,1.665
		c-2.842,0-5.397-0.503-7.671-1.512c-2.273-1.007-4.196-2.362-5.771-4.067c-1.576-1.703-2.789-3.718-3.643-6.043
		c-0.853-2.324-1.278-4.805-1.278-7.438c0-2.789,0.466-5.359,1.395-7.711c0.931-2.35,2.221-4.364,3.875-6.045
		c1.652-1.677,3.615-2.98,5.889-3.912c2.272-0.93,4.752-1.395,7.438-1.395c2.531,0,4.854,0.428,6.974,1.278
		c2.117,0.854,3.938,2.092,5.463,3.72c1.522,1.627,2.698,3.615,3.525,5.965c0.826,2.354,1.24,5.026,1.24,8.021v1.936h-29.29
		c0.103,1.551,0.478,3.035,1.123,4.456c0.645,1.421,1.484,2.661,2.52,3.722c1.032,1.059,2.247,1.896,3.643,2.518
		c1.395,0.621,2.917,0.929,4.57,0.929c2.636,0,4.854-0.464,6.663-1.396c1.809-0.93,3.437-2.297,4.882-4.104L472.964,92.361z
		 M467.772,77.562c-0.104-3.099-1.11-5.578-3.021-7.438c-1.911-1.858-4.546-2.789-7.903-2.789s-6.069,0.931-8.136,2.789
		c-2.065,1.86-3.307,4.341-3.72,7.438H467.772z">
	<animate attributeType="CSS" attributeName="opacity"
	from="0" to="1" dur="10s" repeatCount="indefinite" />
	</path>
</g>
</svg>
